<svg baseProfile="basic" xmlns="http://www.w3.org/2000/svg" width="144" height="72"><g><path fill="#fff" d="M35.456 21.961l-12.456 5.652v15.83l12.456 5.653 12.456-5.653v-15.83l-12.456-5.652zm0 2.484l8.352 3.79-8.352 3.791-8.354-3.791 8.354-3.79zm-10.191 17.542v-12.103l9.059 4.11v12.104l-9.059-4.111zm20.382 0l-9.059 4.11v-12.103l9.059-4.11v12.103z"/><path fill="#A4A4A4" d="M107.456 21.961l-12.456 5.652v15.83l12.456 5.653 12.456-5.653v-15.83l-12.456-5.652zm0 2.484l8.352 3.79-8.352 3.791-8.354-3.791 8.354-3.79zm-10.191 17.542v-12.103l9.059 4.11v12.104l-9.059-4.111zm20.382 0l-9.059 4.11v-12.103l9.059-4.11v12.103z"/></g></svg>