<svg baseProfile="basic" xmlns="http://www.w3.org/2000/svg" width="15.833" height="13.18"><path fill="#AEBEC4" d="M14.46 2.405c-.06.477-.755.955-1.176 1.317.415 6.093-6.53 9.894-11.577 6.807 1.415.011 3.009-.376 3.851-1.171-1.224-.197-2.091-.75-2.428-1.83.358-.034.862.077 1.104-.073-1.12-.423-2.006-1.079-2.061-2.562.399.042.606.275 1.104.219-.725-.461-1.552-2.217-.81-3.512 1.313 1.45 2.955 2.575 5.519 2.781-.637-2.69 2.949-4.356 4.562-2.415.627-.133 1.155-.363 1.691-.585-.22.611-.666.996-1.104 1.391.477-.089.979-.151 1.325-.367z"/></svg>