<?xml version="1.0" encoding="utf-8"?>
<!-- Generator: Adobe Illustrator 16.0.4, SVG Export Plug-In . SVG Version: 6.00 Build 0)  -->
<!DOCTYPE svg PUBLIC "-//W3C//DTD SVG 1.1//EN" "http://www.w3.org/Graphics/SVG/1.1/DTD/svg11.dtd">
<svg version="1.1" id="Layer_1" xmlns="http://www.w3.org/2000/svg" xmlns:xlink="http://www.w3.org/1999/xlink" x="0px" y="0px"
	 width="250px" height="72px" viewBox="0 0 250 72" enable-background="new 0 0 250 72" xml:space="preserve">
<g>
	<path fill="#FFFFFF" d="M54.209,35.604c-0.054-6.075,4.974-9.028,5.204-9.167c-2.848-4.151-7.261-4.718-8.812-4.763
		c-3.707-0.39-7.302,2.216-9.19,2.216c-1.926,0-4.833-2.179-7.967-2.116c-4.033,0.062-7.806,2.398-9.874,6.025
		c-4.271,7.391-1.086,18.255,3.005,24.231c2.046,2.928,4.438,6.194,7.568,6.078c3.062-0.125,4.206-1.951,7.901-1.951
		c3.662,0,4.736,1.951,7.928,1.878c3.287-0.052,5.356-2.939,7.331-5.893c2.365-3.354,3.314-6.658,3.352-6.828
		C60.577,45.289,54.272,42.882,54.209,35.604z"/>
	<path fill="#FFFFFF" d="M48.18,17.744c1.646-2.061,2.773-4.862,2.46-7.707c-2.383,0.107-5.365,1.649-7.082,3.664
		c-1.519,1.776-2.875,4.684-2.525,7.422C43.712,21.322,46.461,19.771,48.18,17.744z"/>
	<path fill="#FFFFFF" d="M85.427,32.61l-8.072,25.079h4.167l2.233-7.366h8.148l2.344,7.366h4.28L90.413,32.61H85.427z
		 M84.462,47.232l2.083-6.548c0.546-2.083,0.944-3.658,1.19-4.726h0.076c0.62,2.48,1.041,4.056,1.264,4.726l2.12,6.548H84.462z"/>
	<path fill="#FFFFFF" d="M111.807,39.234c-2.728,0-4.761,1.079-6.101,3.239h-0.076l-0.224-2.867h-3.534
		c0.099,2.035,0.149,4.02,0.149,5.951v19.5h4.017v-9.525h0.076c1.042,1.711,2.753,2.565,5.135,2.565
		c2.206,0,4.055-0.794,5.543-2.382c1.663-1.785,2.494-4.216,2.494-7.291c0-2.753-0.712-4.973-2.141-6.661
		C115.721,40.077,113.94,39.234,111.807,39.234z M113.927,53.188c-0.842,1.163-2.02,1.748-3.533,1.748
		c-1.289,0-2.336-0.452-3.143-1.357c-0.806-0.908-1.21-2.018-1.21-3.331V47.23c0-0.32,0.062-0.727,0.187-1.224
		c0.247-1.067,0.775-1.929,1.581-2.587c0.805-0.655,1.706-0.987,2.697-0.987c1.462,0,2.629,0.597,3.498,1.785
		c0.795,1.144,1.191,2.595,1.191,4.354C115.194,50.482,114.771,52.021,113.927,53.188z"/>
	<path fill="#FFFFFF" d="M132.606,39.234c-2.729,0-4.763,1.079-6.101,3.239h-0.075l-0.225-2.867h-3.533
		c0.098,2.035,0.149,4.02,0.149,5.951v19.5h4.017v-9.525h0.075c1.04,1.711,2.752,2.565,5.133,2.565c2.208,0,4.056-0.794,5.543-2.382
		c1.663-1.785,2.495-4.216,2.495-7.291c0-2.753-0.714-4.973-2.138-6.661C136.519,40.077,134.737,39.234,132.606,39.234z
		 M134.727,53.188c-0.843,1.163-2.021,1.748-3.533,1.748c-1.294,0-2.341-0.454-3.147-1.357c-0.804-0.908-1.207-2.018-1.207-3.331
		V47.23c0-0.32,0.064-0.727,0.188-1.224c0.247-1.067,0.773-1.929,1.579-2.587c0.807-0.655,1.704-0.987,2.698-0.987
		c1.465,0,2.628,0.597,3.496,1.785c0.795,1.144,1.192,2.595,1.192,4.354C135.992,50.482,135.569,52.021,134.727,53.188z"/>
	<path fill="#FFFFFF" d="M157.054,43.261c-1.765-0.695-2.979-1.341-3.648-1.936c-0.77-0.645-1.15-1.465-1.15-2.455
		c0-0.896,0.335-1.652,1.003-2.271c0.791-0.696,1.896-1.043,3.309-1.043c1.789,0,3.388,0.384,4.802,1.154l1.003-3.276
		c-1.513-0.793-3.408-1.19-5.69-1.19c-2.558,0-4.604,0.657-6.139,1.975c-1.539,1.316-2.309,3.007-2.309,5.068
		c0,3.154,2.194,5.554,6.585,7.191c1.612,0.597,2.768,1.242,3.46,1.938c0.695,0.695,1.041,1.553,1.041,2.57
		c0,1.142-0.419,2.058-1.263,2.738c-0.846,0.685-2.023,1.027-3.536,1.027c-2.109,0-4.045-0.536-5.809-1.604l-0.931,3.35
		c1.638,1.042,3.8,1.562,6.5,1.562c2.922,0,5.196-0.732,6.831-2.195c1.486-1.34,2.227-3.075,2.227-5.21
		c0-1.733-0.508-3.186-1.524-4.347C160.796,45.146,159.213,44.13,157.054,43.261z"/>
	<path fill="#FFFFFF" d="M172.194,35.102l-3.946,1.188v3.312h-2.639v3.015h2.639v9.114c0,2.284,0.447,3.907,1.34,4.875
		c0.895,0.968,2.135,1.452,3.722,1.452c1.291,0,2.333-0.149,3.124-0.445l-0.11-3.051c-0.471,0.125-1.067,0.186-1.785,0.186
		c-1.563,0-2.344-1.115-2.344-3.348v-8.779h4.428v-3.019h-4.428V35.102z"/>
	<path fill="#FFFFFF" d="M187.892,39.236c-2.753,0-4.943,0.893-6.564,2.68c-1.625,1.785-2.437,4.08-2.437,6.883
		c0,2.678,0.788,4.898,2.363,6.659c1.575,1.76,3.688,2.64,6.341,2.64c2.753,0,4.962-0.917,6.625-2.753
		c1.589-1.785,2.384-4.067,2.384-6.846c0-2.706-0.77-4.91-2.312-6.62C192.68,40.118,190.545,39.236,187.892,39.236z M191.321,52.956
		c-0.87,1.465-2.073,2.2-3.606,2.2c-1.568,0-2.781-0.721-3.649-2.164c-0.724-1.19-1.078-2.62-1.078-4.287
		c0-1.719,0.354-3.173,1.078-4.367c0.841-1.441,2.07-2.162,3.685-2.162c1.559,0,2.764,0.718,3.606,2.162
		c0.722,1.192,1.077,2.622,1.077,4.289C192.434,50.295,192.062,51.741,191.321,52.956z"/>
	<path fill="#FFFFFF" d="M205.753,40.203c-0.917,0.717-1.585,1.676-2.01,2.865h-0.11l-0.147-3.46h-3.5
		c0.102,1.709,0.151,3.608,0.151,5.691L200.1,57.688h4.016V48.2c0-1.438,0.335-2.628,1.005-3.57
		c0.769-1.068,1.862-1.601,3.275-1.601c0.445,0,0.868,0.037,1.266,0.11v-3.831c-0.298-0.048-0.633-0.074-1.004-0.074
		C207.615,39.234,206.647,39.557,205.753,40.203z"/>
	<path fill="#FFFFFF" d="M227.63,47.792c0-2.256-0.534-4.155-1.594-5.69c-1.34-1.934-3.314-2.9-5.92-2.9
		c-2.653,0-4.761,0.967-6.321,2.9c-1.491,1.812-2.236,4.082-2.236,6.808c0,2.776,0.801,4.992,2.398,6.642
		c1.603,1.648,3.804,2.473,6.608,2.473c2.331,0,4.35-0.371,6.062-1.117l-0.63-2.787c-1.463,0.57-3.093,0.854-4.876,0.854
		c-1.614,0-2.928-0.422-3.944-1.263c-1.118-0.942-1.7-2.31-1.748-4.097h12.054C227.582,49.119,227.63,48.512,227.63,47.792z
		 M216.618,43.624c0.816-1.094,1.884-1.638,3.198-1.638c1.438,0,2.506,0.558,3.202,1.676c0.544,0.869,0.806,1.895,0.78,3.086h-8.37
		C215.553,45.536,215.95,44.492,216.618,43.624z"/>
	<path fill="#FFFFFF" d="M87.874,22.192c1.328-1.121,1.993-2.792,1.993-5.009c0-1.975-0.615-3.491-1.845-4.553
		c-1.097-0.938-2.723-1.408-4.88-1.408c-1.221,0-2.352,0.088-3.402,0.258v12.118c0.805,0.098,1.766,0.147,2.89,0.147
		C84.894,23.745,86.642,23.226,87.874,22.192z M81.715,12.906c0.439-0.086,0.968-0.129,1.59-0.129c1.465,0,2.576,0.385,3.337,1.152
		c0.762,0.768,1.142,1.872,1.142,3.309c0,1.61-0.414,2.834-1.236,3.675c-0.822,0.839-1.988,1.261-3.499,1.261
		c-0.647,0-1.091-0.017-1.334-0.055V12.906z"/>
	<path fill="#FFFFFF" d="M96.63,14.572c-1.354,0-2.427,0.438-3.227,1.314c-0.799,0.877-1.196,2.006-1.196,3.382
		c0,1.314,0.387,2.407,1.16,3.272c0.774,0.865,1.812,1.297,3.116,1.297c1.353,0,2.437-0.451,3.255-1.353
		c0.78-0.88,1.17-1.999,1.17-3.364c0-1.327-0.379-2.413-1.133-3.253C98.982,15.002,97.934,14.572,96.63,14.572z M98.311,21.311
		c-0.425,0.721-1.017,1.082-1.771,1.082c-0.768,0-1.363-0.355-1.792-1.063c-0.352-0.585-0.53-1.288-0.53-2.109
		c0-0.843,0.176-1.557,0.53-2.144c0.414-0.708,1.018-1.062,1.811-1.062c0.767,0,1.356,0.354,1.771,1.062
		c0.353,0.587,0.529,1.288,0.529,2.107C98.859,20.004,98.677,20.712,98.311,21.311z"/>
	<path fill="#FFFFFF" d="M107.285,23.637l1.223-3.859c0.306-0.937,0.543-1.894,0.714-2.869h0.036
		c0.185,0.95,0.422,1.907,0.715,2.869l1.151,3.859h1.809l2.779-8.883h-1.939l-1.078,4.149c-0.268,1.038-0.469,2.012-0.604,2.926
		h-0.054c-0.183-0.938-0.421-1.914-0.712-2.926l-1.208-4.149h-1.609l-1.261,4.24c-0.343,1.145-0.586,2.091-0.733,2.832h-0.035
		c-0.161-0.9-0.361-1.851-0.604-2.851l-1.004-4.223h-2.03l2.613,8.885H107.285z"/>
	<polygon fill="#FFFFFF" points="115.712,14.752 115.711,14.754 115.712,14.754 	"/>
	<path fill="#FFFFFF" d="M123.975,18.546v5.09h1.976v-5.322c0-1.305-0.34-2.285-1.024-2.944c-0.549-0.537-1.238-0.804-2.067-0.804
		c-0.656,0-1.255,0.167-1.791,0.499c-0.45,0.285-0.793,0.64-1.023,1.073h-0.055l-0.093-1.39h-1.735
		c0.047,0.917,0.072,1.763,0.072,2.543v6.341h1.975v-5.269c0-0.582,0.185-1.091,0.548-1.522c0.368-0.431,0.841-0.647,1.427-0.647
		C123.379,16.195,123.975,16.979,123.975,18.546z"/>
	<rect x="129.423" y="10.678" fill="#FFFFFF" width="1.973" height="12.959"/>
	<path fill="#FFFFFF" d="M138.742,14.572c-1.352,0-2.424,0.438-3.225,1.314c-0.799,0.877-1.196,2.006-1.196,3.382
		c0,1.314,0.387,2.407,1.159,3.272c0.773,0.865,1.812,1.297,3.118,1.297c1.351,0,2.437-0.451,3.253-1.353
		c0.78-0.88,1.171-1.999,1.171-3.364c0-1.327-0.379-2.413-1.132-3.253C141.094,15.002,140.049,14.572,138.742,14.572z
		 M140.424,21.311c-0.427,0.721-1.016,1.082-1.771,1.082c-0.768,0-1.363-0.355-1.792-1.063c-0.352-0.585-0.528-1.288-0.528-2.109
		c0-0.843,0.175-1.557,0.528-2.144c0.414-0.708,1.016-1.062,1.812-1.062c0.764,0,1.356,0.354,1.769,1.062
		c0.354,0.587,0.53,1.288,0.53,2.107C140.973,20.004,140.792,20.712,140.424,21.311z"/>
	<path fill="#FFFFFF" d="M150.605,22.613h0.054l0.147,1.023h1.773c-0.084-0.524-0.128-1.231-0.128-2.12v-3.27
		c0-2.449-1.163-3.675-3.486-3.675c-1.203,0-2.223,0.255-3.047,0.767l0.401,1.295c0.666-0.436,1.438-0.657,2.314-0.657
		c1.233,0,1.846,0.585,1.846,1.754v0.167c-1.645-0.015-2.922,0.267-3.829,0.839c-0.911,0.574-1.364,1.4-1.364,2.484
		c0,0.72,0.232,1.325,0.696,1.811c0.51,0.534,1.188,0.804,2.026,0.804C149.134,23.837,149.999,23.429,150.605,22.613z
		 M147.262,21.003c0-1.231,1.09-1.828,3.269-1.791v1.369c0,0.134-0.011,0.25-0.033,0.348c-0.084,0.429-0.312,0.776-0.685,1.051
		c-0.368,0.274-0.772,0.412-1.207,0.412c-0.387,0-0.71-0.116-0.964-0.348S147.262,21.467,147.262,21.003z"/>
	<path fill="#FFFFFF" d="M163.732,10.678h-1.977v5.097h-0.037c-0.477-0.804-1.31-1.205-2.502-1.205
		c-1.086,0-1.999,0.414-2.742,1.244c-0.77,0.889-1.152,2.054-1.152,3.491c0,1.34,0.354,2.431,1.061,3.272
		c0.706,0.839,1.597,1.261,2.668,1.261c1.34,0,2.293-0.543,2.853-1.629h0.055l0.093,1.428h1.752c-0.048-0.732-0.07-1.529-0.07-2.394
		V10.678z M161.756,19.89c0,0.633-0.188,1.174-0.566,1.626c-0.394,0.486-0.913,0.729-1.561,0.729c-0.722,0-1.3-0.291-1.727-0.876
		c-0.404-0.548-0.607-1.259-0.607-2.139c0-0.913,0.214-1.662,0.634-2.249c0.423-0.585,1.001-0.876,1.736-0.876
		c0.512,0,0.954,0.162,1.321,0.482c0.365,0.324,0.604,0.723,0.715,1.198c0.036,0.158,0.055,0.366,0.055,0.622V19.89z"/>
	<path fill="#FFFFFF" d="M176.269,23.837c1.354,0,2.437-0.451,3.253-1.353c0.78-0.88,1.171-1.999,1.171-3.364
		c0-1.327-0.379-2.413-1.134-3.253c-0.791-0.865-1.84-1.295-3.144-1.295c-1.354,0-2.429,0.438-3.228,1.314
		c-0.799,0.877-1.196,2.006-1.196,3.382c0,1.314,0.387,2.407,1.16,3.272C173.928,23.405,174.966,23.837,176.269,23.837z
		 M174.531,17.076c0.418-0.708,1.02-1.062,1.811-1.062c0.77,0,1.358,0.354,1.774,1.062c0.353,0.587,0.529,1.288,0.529,2.107
		c0,0.821-0.184,1.529-0.548,2.127c-0.427,0.721-1.02,1.082-1.774,1.082c-0.769,0-1.363-0.355-1.792-1.063
		c-0.352-0.585-0.528-1.288-0.528-2.109C174.003,18.377,174.178,17.663,174.531,17.076z"/>
	<path fill="#FFFFFF" d="M183.596,23.633h1.977v-5.269c0-0.582,0.185-1.091,0.549-1.522c0.366-0.431,0.839-0.647,1.424-0.647
		c1.196,0,1.793,0.784,1.793,2.352v5.09h1.973v-5.322c0-1.305-0.339-2.285-1.023-2.944c-0.548-0.537-1.236-0.804-2.064-0.804
		c-0.659,0-1.255,0.167-1.792,0.499c-0.449,0.285-0.792,0.64-1.023,1.073h-0.056l-0.092-1.39h-1.733
		c0.048,0.917,0.069,1.763,0.069,2.543V23.633z"/>
	<path fill="#FFFFFF" d="M200.49,20.71c0,1.123,0.219,1.921,0.658,2.396c0.439,0.475,1.047,0.712,1.827,0.712
		c0.632,0,1.144-0.074,1.533-0.221l-0.052-1.498c-0.231,0.061-0.524,0.092-0.879,0.092c-0.766,0-1.15-0.548-1.15-1.645v-4.315h2.173
		V14.75h-2.175v-2.21l-1.936,0.585v1.627h-1.3v1.479h1.3V20.71z"/>
	<path fill="#FFFFFF" d="M213.081,18.585v5.052h1.977v-5.283c0-1.316-0.335-2.31-1.005-2.979c-0.538-0.538-1.215-0.804-2.032-0.804
		c-1.155,0-2.046,0.486-2.668,1.459h-0.037v-5.352h-1.973v12.955h1.973v-5.34c0-0.28,0.033-0.517,0.092-0.712
		c0.343-0.922,0.969-1.386,1.885-1.386C212.484,16.195,213.081,16.993,213.081,18.585z"/>
	<path fill="#FFFFFF" d="M222.363,23.802c1.148,0,2.14-0.184,2.98-0.548l-0.309-1.373c-0.718,0.28-1.517,0.42-2.395,0.42
		c-0.791,0-1.437-0.206-1.938-0.622c-0.549-0.464-0.832-1.132-0.857-2.01h5.922c0.048-0.243,0.073-0.541,0.073-0.894
		c0-1.108-0.261-2.043-0.791-2.795c-0.655-0.95-1.627-1.424-2.904-1.424c-1.307,0-2.341,0.475-3.106,1.424
		c-0.732,0.889-1.097,2.004-1.097,3.344c0,1.365,0.391,2.451,1.178,3.263C219.904,23.397,220.988,23.802,222.363,23.802z
		 M220.431,16.729c0.401-0.538,0.928-0.806,1.571-0.806c0.707,0,1.229,0.276,1.572,0.824c0.269,0.425,0.397,0.931,0.383,1.517
		h-4.111C219.908,17.667,220.104,17.155,220.431,16.729z"/>
</g>
</svg>
