<?xml version="1.0" encoding="utf-8"?>
<!-- Generator: Adobe Illustrator 16.0.4, SVG Export Plug-In . SVG Version: 6.00 Build 0)  -->
<!DOCTYPE svg PUBLIC "-//W3C//DTD SVG 1.1//EN" "http://www.w3.org/Graphics/SVG/1.1/DTD/svg11.dtd">
<svg version="1.1" xmlns="http://www.w3.org/2000/svg" xmlns:xlink="http://www.w3.org/1999/xlink" x="0px" y="0px"
	 width="469.01px" height="360.716px" viewBox="-111.686 -74.183 469.01 360.716"
	 enable-background="new -111.686 -74.183 469.01 360.716" xml:space="preserve">
<g id="Layer_3">
</g>
<g id="Layer_1">
	<path opacity="0.2" d="M108.594,389.371l2.619-1.462L-6.67,176.655l11.355,0.101l-27.046-49.716l-12.055-0.106l-6.308-11.303
		l11.493,0.102l-27.046-49.716l-12.192-0.108l-22.787-40.835l69.781,0.616l21.239,0.171l0,0l0.929,0.007l1.218-2.625l-2.941-0.881
		l-0.281,0.507l-95.079-0.842h0l-15.295-0.135l24.469,43.85l-8.463-0.075l-1.709-0.062l27.772,49.77l10.146,0.09l6.307,11.303
		l-8.601-0.076l-1.709-0.062l27.772,49.769l10.283,0.092L93.299,389.236l2.619-1.462L-21.966,176.52l11.844,0.104L108.594,389.371z
		 M-83.764,65.772l-22.787-40.835l11.843,0.105l22.787,40.834L-83.764,65.772z M-49.712,126.797l-6.307-11.303l11.843,0.104
		l6.307,11.303L-49.712,126.797z"/>
	<g>
		<polygon fill="#A5A5A5" points="149.928,67.111 130.334,102.427 100.405,54.395 119.521,19.937 120.311,18.419 		"/>
	</g>
	<g>
		<polygon fill="#A5A5A5" points="113.545,7.528 93.951,42.844 64.021,-5.191 83.139,-39.648 83.928,-41.166 		"/>
	</g>
	<g>
		<polyline fill="none" stroke="#939393" stroke-width="3" stroke-miterlimit="10" points="262.139,299.909 44.876,-57.292 
			0,23.596 		"/>
		<polyline fill="none" stroke="#939393" stroke-width="3" stroke-miterlimit="10" points="269.56,286.534 52.297,-70.667 
			7.421,10.22 		"/>
		<path fill="none" stroke="#939393" stroke-width="3" stroke-miterlimit="10" d="M23.826-19.349"/>
	</g>
	<line fill="none" stroke="#939393" stroke-width="3" stroke-miterlimit="10" x1="91.922" y1="-3.993" x2="84.56" y2="9.278"/>
	<line fill="none" stroke="#939393" stroke-width="3" stroke-miterlimit="10" x1="128.239" y1="54.292" x2="120.877" y2="67.562"/>
</g>
<g id="Layer_2">
</g>
</svg>
