<?xml version="1.0" encoding="UTF-8"?>
<svg width="18px" height="14px" viewBox="0 0 18 14" version="1.1" xmlns="http://www.w3.org/2000/svg" xmlns:xlink="http://www.w3.org/1999/xlink">
    <!-- Generator: Sketch 41.2 (35397) - http://www.bohemiancoding.com/sketch -->
    <title>icon-blockquote</title>
    <desc>Created with Sketch.</desc>
    <defs></defs>
    <g id="Symbols" stroke="none" stroke-width="1" fill="none" fill-rule="evenodd">
        <g id="icon-blockquote" fill="#FF04B4">
            <path d="M0,8.88 C0,7.1199912 0.4399956,5.46400776 1.32,3.912 C2.2000044,2.35999224 3.40799232,1.05600528 4.944,0 L7.584,2.112 C6.783996,2.52800208 6.01600368,3.18399552 5.28,4.08 C4.54399632,4.97600448 4.06400112,5.83999584 3.84,6.672 C3.96800064,6.57599952 4.28799744,6.528 4.8,6.528 C5.72800464,6.528 6.50399688,6.8479968 7.128,7.488 C7.75200312,8.1280032 8.064,8.95999488 8.064,9.984 C8.064,11.0080051 7.68800376,11.8959962 6.936,12.648 C6.18399624,13.4000038 5.29600512,13.776 4.272,13.776 C3.08799408,13.776 2.08000416,13.3360044 1.248,12.456 C0.41599584,11.5759956 0,10.3840075 0,8.88 L0,8.88 Z M9.792,8.88 C9.792,7.1199912 10.2319956,5.46400776 11.112,3.912 C11.9920044,2.35999224 13.1839925,1.05600528 14.688,0 L17.376,2.112 C16.575996,2.52800208 15.8000038,3.18399552 15.048,4.08 C14.2959962,4.97600448 13.824001,5.83999584 13.632,6.672 C13.7600006,6.57599952 14.0799974,6.528 14.592,6.528 C15.4880045,6.528 16.2479969,6.8479968 16.872,7.488 C17.4960031,8.1280032 17.808,8.95999488 17.808,9.984 C17.808,11.0080051 17.4400037,11.8959962 16.704,12.648 C15.9679963,13.4000038 15.0720053,13.776 14.016,13.776 C12.8319941,13.776 11.8320041,13.3360044 11.016,12.456 C10.1999959,11.5759956 9.792,10.3840075 9.792,8.88 L9.792,8.88 Z"></path>
        </g>
    </g>
</svg>