<?xml version="1.0" encoding="UTF-8"?>
<svg width="16px" height="13px" viewBox="0 0 16 13" version="1.1" xmlns="http://www.w3.org/2000/svg" xmlns:xlink="http://www.w3.org/1999/xlink">
    <!-- Generator: Sketch 41.2 (35397) - http://www.bohemiancoding.com/sketch -->
    <title>icon-check</title>
    <desc>Created with Sketch.</desc>
    <defs></defs>
    <g id="Symbols" stroke="none" stroke-width="1" fill="none" fill-rule="evenodd">
        <g id="icon-check" fill="#FF04B4">
            <path d="M15.6565657,3.28205041 C15.6565657,3.55141203 15.5622905,3.78036597 15.3737374,3.9689191 L8.06060606,11.2820504 L6.68686869,12.6557878 C6.49831556,12.8443409 6.26936162,12.9386161 6,12.9386161 C5.73063838,12.9386161 5.50168444,12.8443409 5.31313131,12.6557878 L3.93939394,11.2820504 L0.282828283,7.62548476 C0.0942751515,7.43693163 0,7.20797769 0,6.93861607 C0,6.66925446 0.0942751515,6.44030052 0.282828283,6.25174738 L1.65656566,4.87801001 C1.84511879,4.68945688 2.07407273,4.59518173 2.34343434,4.59518173 C2.61279596,4.59518173 2.8417499,4.68945688 3.03030303,4.87801001 L6,7.85780799 L12.6262626,1.22144435 C12.8148158,1.03289122 13.0437697,0.938616071 13.3131313,0.938616071 C13.5824929,0.938616071 13.8114469,1.03289122 14,1.22144435 L15.3737374,2.59518173 C15.5622905,2.78373486 15.6565657,3.0126888 15.6565657,3.28205041 L15.6565657,3.28205041 Z"></path>
        </g>
    </g>
</svg>