<svg xmlns="http://www.w3.org/2000/svg" width="169.5" height="21.822"><path fill="#A7C2C6" d="M113.007 15.743c-.329.156-1.633.293-2.103.305-1.415.038-1.393-.994-1.404-1.743v-5.894h3.929v-2h-3.929v-4.794h-2.2s-.117.038-.127.133c-.151 1.378-.797 3.694-3.479 4.661v2h1.807v6.167c0 1.979 1.442 4.788 5.295 4.723 1.3-.022 2.743-.566 3.062-1.035l-.851-2.523z"/><path stroke="#A7C2C6" stroke-width="1.1" d="M152.664 8.963c0 1.092-.884 1.98-1.973 1.98s-1.972-.888-1.972-1.98c0-1.09.883-1.974 1.972-1.974s1.973.884 1.973 1.974z" fill="none"/><path stroke="#A7C2C6" stroke-width="1.1" d="M132.711 6.989c1.089 0 1.972.883 1.972 1.974 0 1.092-.883 1.98-1.972 1.98s-1.973-.888-1.973-1.98c0-1.09.884-1.974 1.973-1.974z" fill="none"/><path stroke="#A7C2C6" stroke-width="1.1" stroke-linecap="round" stroke-linejoin="round" d="M147.095 2.94l-3.944-.929-1.449 4.584" fill="none"/><path stroke="#A7C2C6" stroke-width="1.1" d="M150.56 3.258c0 .858-.696 1.555-1.554 1.555-.859 0-1.557-.697-1.557-1.555 0-.86.697-1.556 1.557-1.556.857.001 1.554.696 1.554 1.556z" fill="none"/><path fill="#fff" stroke="#A7C2C6" stroke-miterlimit="10" d="M150.52 12.579c0 3.221-4 5.832-8.937 5.832-4.935 0-8.935-2.611-8.935-5.832 0-3.223 4-5.834 8.935-5.834 4.937 0 8.937 2.611 8.937 5.834"/><path stroke="#A7C2C6" stroke-width="2" d="M150.52 12.579c0 3.221-4 5.832-8.937 5.832-4.935 0-8.935-2.611-8.935-5.832 0-3.223 4-5.834 8.935-5.834 4.937 0 8.937 2.611 8.937 5.834z" fill="none"/><path fill="#A7C2C6" d="M139.526 11.443c0 .576-.468 1.043-1.044 1.043-.578 0-1.046-.467-1.046-1.043 0-.58.468-1.05 1.046-1.05.576 0 1.044.47 1.044 1.05"/><path fill="#A7C2C6" d="M145.82 11.443c0 .576-.466 1.043-1.043 1.043-.576 0-1.044-.467-1.044-1.043 0-.58.468-1.05 1.044-1.05.578 0 1.043.47 1.043 1.05"/><path stroke="#A7C2C6" stroke-width="1.1" stroke-linecap="round" d="M138.54 14.468c.778.777 2.034.928 3.075.928" fill="none"/><path stroke="#A7C2C6" stroke-width="1.1" stroke-linecap="round" d="M144.731 14.468c-.78.777-2.034.928-3.075.928h-.041" fill="none"/><path fill="#90A9AE" d="M81.193 2.411h-11.388c-1.82 0-3.305 1.482-3.305 3.306v10.353c0 1.823 1.482 3.307 3.305 3.307h11.389c1.822 0 3.307-1.482 3.307-3.307v-10.352c-.001-1.823-1.485-3.307-3.308-3.307zm.401 1.831l.906-.001v3.166h-4v-3.156l3.094-.009zm-8.284 4.825c.547-.757 1.435-1.254 2.44-1.254 1.004 0 1.895.497 2.441 1.254.355.496.568 1.102.568 1.756 0 1.66-1.352 3.011-3.012 3.011-1.659 0-3.009-1.351-3.009-3.011.001-.655.214-1.26.572-1.756zm9.19 6.705c0 .903-.736 1.64-1.641 1.64h-10.72c-.902 0-1.639-.735-1.639-1.64v-6.36h2.917c-.219.543-.344.791-.344 1.411 0 2.578 2.098 4.679 4.677 4.679 2.578 0 4.678-2.101 4.678-4.679 0-.62-.125-.868-.346-1.411h2.418v6.36zM44.487 4.938c.497-.802 2.479-.593 2.479-.593v-2.839c-3.128 0-3.392-.138-4.466 1.013-.955 1.023-.985 3.033-1.063 5.062h-2.571v2.774h2.634c-.001 2.895 0 6.337 0 9.056h3v-9.091h2c.164-.933.261-1.662.484-2.739h-2.63c.023-.921-.138-2.204.133-2.643zM18.209 3.663c-.716.297-1.421.604-2.257.78-2.15-2.589-6.931-.366-6.083 3.221-3.418-.275-5.605-1.775-7.357-3.708-.99 1.728.113 4.067 1.079 4.685-.664.074-.941-.237-1.472-.293.073 1.978 1.254 2.853 2.747 3.416-.322.2-.994.052-1.472.097.448 1.44 1.605 2.178 3.237 2.44-1.122 1.06-3.248 1.575-5.135 1.562 6.729 4.116 15.99-.951 15.437-9.075.562-.483 1.488-1.121 1.569-1.757-.462.288-1.132.371-1.766.488.584-.527 1.18-1.041 1.473-1.856zM166.203 2.775l-.28 2.516 2.55-.711.226 1.723-2.324.164 1.524 2.03-1.552.827-1.066-2.14-.937 2.126-1.613-.813 1.511-2.03-2.311-.178.267-1.709 2.495.711-.28-2.516h1.79z"/></svg>