<svg xmlns="http://www.w3.org/2000/svg" xmlns:xlink="http://www.w3.org/1999/xlink" xmlns:jfreesvg="http://www.jfree.org/jfreesvg/svg" width="880" height="880" text-rendering="auto" shape-rendering="auto">
<defs></defs>
<rect x="0" y="0" width="880" height="880" style="fill: rgb(255,255,255); fill-opacity: 1.0" transform="matrix(1,0,0,1,0,0)" /><rect x="150" y="120" width="10" height="10" style="fill: rgb(0,0,0); fill-opacity: 1.0" transform="matrix(1,0,0,1,0,0)" /><rect x="180" y="120" width="10" height="10" style="fill: rgb(0,0,0); fill-opacity: 1.0" transform="matrix(1,0,0,1,0,0)" /><rect x="210" y="120" width="10" height="10" style="fill: rgb(0,0,0); fill-opacity: 1.0" transform="matrix(1,0,0,1,0,0)" /><rect x="380" y="120" width="10" height="10" style="fill: rgb(0,0,0); fill-opacity: 1.0" transform="matrix(1,0,0,1,0,0)" /><rect x="410" y="120" width="10" height="10" style="fill: rgb(0,0,0); fill-opacity: 1.0" transform="matrix(1,0,0,1,0,0)" /><rect x="460" y="120" width="10" height="10" style="fill: rgb(0,0,0); fill-opacity: 1.0" transform="matrix(1,0,0,1,0,0)" /><rect x="490" y="120" width="10" height="10" style="fill: rgb(0,0,0); fill-opacity: 1.0" transform="matrix(1,0,0,1,0,0)" /><rect x="660" y="120" width="10" height="10" style="fill: rgb(0,0,0); fill-opacity: 1.0" transform="matrix(1,0,0,1,0,0)" /><rect x="690" y="120" width="10" height="10" style="fill: rgb(0,0,0); fill-opacity: 1.0" transform="matrix(1,0,0,1,0,0)" /><rect x="720" y="120" width="10" height="10" style="fill: rgb(0,0,0); fill-opacity: 1.0" transform="matrix(1,0,0,1,0,0)" /><rect x="300" y="130" width="10" height="10" style="fill: rgb(0,0,0); fill-opacity: 1.0" transform="matrix(1,0,0,1,0,0)" /><rect x="320" y="130" width="10" height="10" style="fill: rgb(0,0,0); fill-opacity: 1.0" transform="matrix(1,0,0,1,0,0)" /><rect x="430" y="130" width="10" height="10" style="fill: rgb(0,0,0); fill-opacity: 1.0" transform="matrix(1,0,0,1,0,0)" /><rect x="440" y="130" width="10" height="10" style="fill: rgb(0,0,0); fill-opacity: 1.0" transform="matrix(1,0,0,1,0,0)" /><rect x="550" y="130" width="10" height="10" style="fill: rgb(0,0,0); fill-opacity: 1.0" transform="matrix(1,0,0,1,0,0)" /><rect x="570" y="130" width="10" height="10" style="fill: rgb(0,0,0); fill-opacity: 1.0" transform="matrix(1,0,0,1,0,0)" /><rect x="290" y="140" width="10" height="10" style="fill: rgb(0,0,0); fill-opacity: 1.0" transform="matrix(1,0,0,1,0,0)" /><rect x="410" y="140" width="10" height="10" style="fill: rgb(0,0,0); fill-opacity: 1.0" transform="matrix(1,0,0,1,0,0)" /><rect x="460" y="140" width="10" height="10" style="fill: rgb(0,0,0); fill-opacity: 1.0" transform="matrix(1,0,0,1,0,0)" /><rect x="580" y="140" width="10" height="10" style="fill: rgb(0,0,0); fill-opacity: 1.0" transform="matrix(1,0,0,1,0,0)" /><rect x="120" y="150" width="10" height="10" style="fill: rgb(0,0,0); fill-opacity: 1.0" transform="matrix(1,0,0,1,0,0)" /><rect x="260" y="150" width="10" height="10" style="fill: rgb(0,0,0); fill-opacity: 1.0" transform="matrix(1,0,0,1,0,0)" /><rect x="410" y="150" width="10" height="10" style="fill: rgb(0,0,0); fill-opacity: 1.0" transform="matrix(1,0,0,1,0,0)" /><rect x="460" y="150" width="10" height="10" style="fill: rgb(0,0,0); fill-opacity: 1.0" transform="matrix(1,0,0,1,0,0)" /><rect x="610" y="150" width="10" height="10" style="fill: rgb(0,0,0); fill-opacity: 1.0" transform="matrix(1,0,0,1,0,0)" /><rect x="750" y="150" width="10" height="10" style="fill: rgb(0,0,0); fill-opacity: 1.0" transform="matrix(1,0,0,1,0,0)" /><rect x="180" y="160" width="10" height="10" style="fill: rgb(0,0,0); fill-opacity: 1.0" transform="matrix(1,0,0,1,0,0)" /><rect x="250" y="160" width="10" height="10" style="fill: rgb(0,0,0); fill-opacity: 1.0" transform="matrix(1,0,0,1,0,0)" /><rect x="260" y="160" width="10" height="10" style="fill: rgb(0,0,0); fill-opacity: 1.0" transform="matrix(1,0,0,1,0,0)" /><rect x="330" y="160" width="10" height="10" style="fill: rgb(0,0,0); fill-opacity: 1.0" transform="matrix(1,0,0,1,0,0)" /><rect x="400" y="160" width="10" height="10" style="fill: rgb(0,0,0); fill-opacity: 1.0" transform="matrix(1,0,0,1,0,0)" /><rect x="470" y="160" width="10" height="10" style="fill: rgb(0,0,0); fill-opacity: 1.0" transform="matrix(1,0,0,1,0,0)" /><rect x="540" y="160" width="10" height="10" style="fill: rgb(0,0,0); fill-opacity: 1.0" transform="matrix(1,0,0,1,0,0)" /><rect x="610" y="160" width="10" height="10" style="fill: rgb(0,0,0); fill-opacity: 1.0" transform="matrix(1,0,0,1,0,0)" /><rect x="620" y="160" width="10" height="10" style="fill: rgb(0,0,0); fill-opacity: 1.0" transform="matrix(1,0,0,1,0,0)" /><rect x="690" y="160" width="10" height="10" style="fill: rgb(0,0,0); fill-opacity: 1.0" transform="matrix(1,0,0,1,0,0)" /><rect x="220" y="170" width="10" height="10" style="fill: rgb(0,0,0); fill-opacity: 1.0" transform="matrix(1,0,0,1,0,0)" /><rect x="320" y="170" width="10" height="10" style="fill: rgb(0,0,0); fill-opacity: 1.0" transform="matrix(1,0,0,1,0,0)" /><rect x="550" y="170" width="10" height="10" style="fill: rgb(0,0,0); fill-opacity: 1.0" transform="matrix(1,0,0,1,0,0)" /><rect x="650" y="170" width="10" height="10" style="fill: rgb(0,0,0); fill-opacity: 1.0" transform="matrix(1,0,0,1,0,0)" /><rect x="120" y="180" width="10" height="10" style="fill: rgb(0,0,0); fill-opacity: 1.0" transform="matrix(1,0,0,1,0,0)" /><rect x="160" y="180" width="10" height="10" style="fill: rgb(0,0,0); fill-opacity: 1.0" transform="matrix(1,0,0,1,0,0)" /><rect x="200" y="180" width="10" height="10" style="fill: rgb(0,0,0); fill-opacity: 1.0" transform="matrix(1,0,0,1,0,0)" /><rect x="410" y="180" width="10" height="10" style="fill: rgb(0,0,0); fill-opacity: 1.0" transform="matrix(1,0,0,1,0,0)" /><rect x="460" y="180" width="10" height="10" style="fill: rgb(0,0,0); fill-opacity: 1.0" transform="matrix(1,0,0,1,0,0)" /><rect x="670" y="180" width="10" height="10" style="fill: rgb(0,0,0); fill-opacity: 1.0" transform="matrix(1,0,0,1,0,0)" /><rect x="710" y="180" width="10" height="10" style="fill: rgb(0,0,0); fill-opacity: 1.0" transform="matrix(1,0,0,1,0,0)" /><rect x="750" y="180" width="10" height="10" style="fill: rgb(0,0,0); fill-opacity: 1.0" transform="matrix(1,0,0,1,0,0)" /><rect x="200" y="190" width="10" height="10" style="fill: rgb(0,0,0); fill-opacity: 1.0" transform="matrix(1,0,0,1,0,0)" /><rect x="270" y="190" width="10" height="10" style="fill: rgb(0,0,0); fill-opacity: 1.0" transform="matrix(1,0,0,1,0,0)" /><rect x="340" y="190" width="10" height="10" style="fill: rgb(0,0,0); fill-opacity: 1.0" transform="matrix(1,0,0,1,0,0)" /><rect x="380" y="190" width="10" height="10" style="fill: rgb(0,0,0); fill-opacity: 1.0" transform="matrix(1,0,0,1,0,0)" /><rect x="490" y="190" width="10" height="10" style="fill: rgb(0,0,0); fill-opacity: 1.0" transform="matrix(1,0,0,1,0,0)" /><rect x="530" y="190" width="10" height="10" style="fill: rgb(0,0,0); fill-opacity: 1.0" transform="matrix(1,0,0,1,0,0)" /><rect x="600" y="190" width="10" height="10" style="fill: rgb(0,0,0); fill-opacity: 1.0" transform="matrix(1,0,0,1,0,0)" /><rect x="670" y="190" width="10" height="10" style="fill: rgb(0,0,0); fill-opacity: 1.0" transform="matrix(1,0,0,1,0,0)" /><rect x="180" y="200" width="10" height="10" style="fill: rgb(0,0,0); fill-opacity: 1.0" transform="matrix(1,0,0,1,0,0)" /><rect x="190" y="200" width="10" height="10" style="fill: rgb(0,0,0); fill-opacity: 1.0" transform="matrix(1,0,0,1,0,0)" /><rect x="200" y="200" width="10" height="10" style="fill: rgb(0,0,0); fill-opacity: 1.0" transform="matrix(1,0,0,1,0,0)" /><rect x="420" y="200" width="10" height="10" style="fill: rgb(0,0,0); fill-opacity: 1.0" transform="matrix(1,0,0,1,0,0)" /><rect x="450" y="200" width="10" height="10" style="fill: rgb(0,0,0); fill-opacity: 1.0" transform="matrix(1,0,0,1,0,0)" /><rect x="670" y="200" width="10" height="10" style="fill: rgb(0,0,0); fill-opacity: 1.0" transform="matrix(1,0,0,1,0,0)" /><rect x="680" y="200" width="10" height="10" style="fill: rgb(0,0,0); fill-opacity: 1.0" transform="matrix(1,0,0,1,0,0)" /><rect x="690" y="200" width="10" height="10" style="fill: rgb(0,0,0); fill-opacity: 1.0" transform="matrix(1,0,0,1,0,0)" /><rect x="120" y="210" width="10" height="10" style="fill: rgb(0,0,0); fill-opacity: 1.0" transform="matrix(1,0,0,1,0,0)" /><rect x="210" y="210" width="10" height="10" style="fill: rgb(0,0,0); fill-opacity: 1.0" transform="matrix(1,0,0,1,0,0)" /><rect x="220" y="210" width="10" height="10" style="fill: rgb(0,0,0); fill-opacity: 1.0" transform="matrix(1,0,0,1,0,0)" /><rect x="310" y="210" width="10" height="10" style="fill: rgb(0,0,0); fill-opacity: 1.0" transform="matrix(1,0,0,1,0,0)" /><rect x="320" y="210" width="10" height="10" style="fill: rgb(0,0,0); fill-opacity: 1.0" transform="matrix(1,0,0,1,0,0)" /><rect x="400" y="210" width="10" height="10" style="fill: rgb(0,0,0); fill-opacity: 1.0" transform="matrix(1,0,0,1,0,0)" /><rect x="410" y="210" width="10" height="10" style="fill: rgb(0,0,0); fill-opacity: 1.0" transform="matrix(1,0,0,1,0,0)" /><rect x="460" y="210" width="10" height="10" style="fill: rgb(0,0,0); fill-opacity: 1.0" transform="matrix(1,0,0,1,0,0)" /><rect x="470" y="210" width="10" height="10" style="fill: rgb(0,0,0); fill-opacity: 1.0" transform="matrix(1,0,0,1,0,0)" /><rect x="550" y="210" width="10" height="10" style="fill: rgb(0,0,0); fill-opacity: 1.0" transform="matrix(1,0,0,1,0,0)" /><rect x="560" y="210" width="10" height="10" style="fill: rgb(0,0,0); fill-opacity: 1.0" transform="matrix(1,0,0,1,0,0)" /><rect x="650" y="210" width="10" height="10" style="fill: rgb(0,0,0); fill-opacity: 1.0" transform="matrix(1,0,0,1,0,0)" /><rect x="660" y="210" width="10" height="10" style="fill: rgb(0,0,0); fill-opacity: 1.0" transform="matrix(1,0,0,1,0,0)" /><rect x="750" y="210" width="10" height="10" style="fill: rgb(0,0,0); fill-opacity: 1.0" transform="matrix(1,0,0,1,0,0)" /><rect x="170" y="220" width="10" height="10" style="fill: rgb(0,0,0); fill-opacity: 1.0" transform="matrix(1,0,0,1,0,0)" /><rect x="210" y="220" width="10" height="10" style="fill: rgb(0,0,0); fill-opacity: 1.0" transform="matrix(1,0,0,1,0,0)" /><rect x="410" y="220" width="10" height="10" style="fill: rgb(0,0,0); fill-opacity: 1.0" transform="matrix(1,0,0,1,0,0)" /><rect x="460" y="220" width="10" height="10" style="fill: rgb(0,0,0); fill-opacity: 1.0" transform="matrix(1,0,0,1,0,0)" /><rect x="660" y="220" width="10" height="10" style="fill: rgb(0,0,0); fill-opacity: 1.0" transform="matrix(1,0,0,1,0,0)" /><rect x="700" y="220" width="10" height="10" style="fill: rgb(0,0,0); fill-opacity: 1.0" transform="matrix(1,0,0,1,0,0)" /><rect x="230" y="230" width="10" height="10" style="fill: rgb(0,0,0); fill-opacity: 1.0" transform="matrix(1,0,0,1,0,0)" /><rect x="370" y="230" width="10" height="10" style="fill: rgb(0,0,0); fill-opacity: 1.0" transform="matrix(1,0,0,1,0,0)" /><rect x="390" y="230" width="10" height="10" style="fill: rgb(0,0,0); fill-opacity: 1.0" transform="matrix(1,0,0,1,0,0)" /><rect x="430" y="230" width="10" height="10" style="fill: rgb(0,0,0); fill-opacity: 1.0" transform="matrix(1,0,0,1,0,0)" /><rect x="440" y="230" width="10" height="10" style="fill: rgb(0,0,0); fill-opacity: 1.0" transform="matrix(1,0,0,1,0,0)" /><rect x="480" y="230" width="10" height="10" style="fill: rgb(0,0,0); fill-opacity: 1.0" transform="matrix(1,0,0,1,0,0)" /><rect x="500" y="230" width="10" height="10" style="fill: rgb(0,0,0); fill-opacity: 1.0" transform="matrix(1,0,0,1,0,0)" /><rect x="640" y="230" width="10" height="10" style="fill: rgb(0,0,0); fill-opacity: 1.0" transform="matrix(1,0,0,1,0,0)" /><rect x="410" y="240" width="10" height="10" style="fill: rgb(0,0,0); fill-opacity: 1.0" transform="matrix(1,0,0,1,0,0)" /><rect x="460" y="240" width="10" height="10" style="fill: rgb(0,0,0); fill-opacity: 1.0" transform="matrix(1,0,0,1,0,0)" /><rect x="160" y="250" width="10" height="10" style="fill: rgb(0,0,0); fill-opacity: 1.0" transform="matrix(1,0,0,1,0,0)" /><rect x="330" y="250" width="10" height="10" style="fill: rgb(0,0,0); fill-opacity: 1.0" transform="matrix(1,0,0,1,0,0)" /><rect x="540" y="250" width="10" height="10" style="fill: rgb(0,0,0); fill-opacity: 1.0" transform="matrix(1,0,0,1,0,0)" /><rect x="710" y="250" width="10" height="10" style="fill: rgb(0,0,0); fill-opacity: 1.0" transform="matrix(1,0,0,1,0,0)" /><rect x="150" y="260" width="10" height="10" style="fill: rgb(0,0,0); fill-opacity: 1.0" transform="matrix(1,0,0,1,0,0)" /><rect x="160" y="260" width="10" height="10" style="fill: rgb(0,0,0); fill-opacity: 1.0" transform="matrix(1,0,0,1,0,0)" /><rect x="270" y="260" width="10" height="10" style="fill: rgb(0,0,0); fill-opacity: 1.0" transform="matrix(1,0,0,1,0,0)" /><rect x="280" y="260" width="10" height="10" style="fill: rgb(0,0,0); fill-opacity: 1.0" transform="matrix(1,0,0,1,0,0)" /><rect x="380" y="260" width="10" height="10" style="fill: rgb(0,0,0); fill-opacity: 1.0" transform="matrix(1,0,0,1,0,0)" /><rect x="390" y="260" width="10" height="10" style="fill: rgb(0,0,0); fill-opacity: 1.0" transform="matrix(1,0,0,1,0,0)" /><rect x="480" y="260" width="10" height="10" style="fill: rgb(0,0,0); fill-opacity: 1.0" transform="matrix(1,0,0,1,0,0)" /><rect x="490" y="260" width="10" height="10" style="fill: rgb(0,0,0); fill-opacity: 1.0" transform="matrix(1,0,0,1,0,0)" /><rect x="590" y="260" width="10" height="10" style="fill: rgb(0,0,0); fill-opacity: 1.0" transform="matrix(1,0,0,1,0,0)" /><rect x="600" y="260" width="10" height="10" style="fill: rgb(0,0,0); fill-opacity: 1.0" transform="matrix(1,0,0,1,0,0)" /><rect x="710" y="260" width="10" height="10" style="fill: rgb(0,0,0); fill-opacity: 1.0" transform="matrix(1,0,0,1,0,0)" /><rect x="720" y="260" width="10" height="10" style="fill: rgb(0,0,0); fill-opacity: 1.0" transform="matrix(1,0,0,1,0,0)" /><rect x="190" y="270" width="10" height="10" style="fill: rgb(0,0,0); fill-opacity: 1.0" transform="matrix(1,0,0,1,0,0)" /><rect x="260" y="270" width="10" height="10" style="fill: rgb(0,0,0); fill-opacity: 1.0" transform="matrix(1,0,0,1,0,0)" /><rect x="330" y="270" width="10" height="10" style="fill: rgb(0,0,0); fill-opacity: 1.0" transform="matrix(1,0,0,1,0,0)" /><rect x="400" y="270" width="10" height="10" style="fill: rgb(0,0,0); fill-opacity: 1.0" transform="matrix(1,0,0,1,0,0)" /><rect x="470" y="270" width="10" height="10" style="fill: rgb(0,0,0); fill-opacity: 1.0" transform="matrix(1,0,0,1,0,0)" /><rect x="540" y="270" width="10" height="10" style="fill: rgb(0,0,0); fill-opacity: 1.0" transform="matrix(1,0,0,1,0,0)" /><rect x="610" y="270" width="10" height="10" style="fill: rgb(0,0,0); fill-opacity: 1.0" transform="matrix(1,0,0,1,0,0)" /><rect x="680" y="270" width="10" height="10" style="fill: rgb(0,0,0); fill-opacity: 1.0" transform="matrix(1,0,0,1,0,0)" /><rect x="260" y="280" width="10" height="10" style="fill: rgb(0,0,0); fill-opacity: 1.0" transform="matrix(1,0,0,1,0,0)" /><rect x="390" y="280" width="10" height="10" style="fill: rgb(0,0,0); fill-opacity: 1.0" transform="matrix(1,0,0,1,0,0)" /><rect x="480" y="280" width="10" height="10" style="fill: rgb(0,0,0); fill-opacity: 1.0" transform="matrix(1,0,0,1,0,0)" /><rect x="610" y="280" width="10" height="10" style="fill: rgb(0,0,0); fill-opacity: 1.0" transform="matrix(1,0,0,1,0,0)" /><rect x="140" y="290" width="10" height="10" style="fill: rgb(0,0,0); fill-opacity: 1.0" transform="matrix(1,0,0,1,0,0)" /><rect x="290" y="290" width="10" height="10" style="fill: rgb(0,0,0); fill-opacity: 1.0" transform="matrix(1,0,0,1,0,0)" /><rect x="580" y="290" width="10" height="10" style="fill: rgb(0,0,0); fill-opacity: 1.0" transform="matrix(1,0,0,1,0,0)" /><rect x="730" y="290" width="10" height="10" style="fill: rgb(0,0,0); fill-opacity: 1.0" transform="matrix(1,0,0,1,0,0)" /><rect x="130" y="300" width="10" height="10" style="fill: rgb(0,0,0); fill-opacity: 1.0" transform="matrix(1,0,0,1,0,0)" /><rect x="740" y="300" width="10" height="10" style="fill: rgb(0,0,0); fill-opacity: 1.0" transform="matrix(1,0,0,1,0,0)" /><rect x="210" y="310" width="10" height="10" style="fill: rgb(0,0,0); fill-opacity: 1.0" transform="matrix(1,0,0,1,0,0)" /><rect x="390" y="310" width="10" height="10" style="fill: rgb(0,0,0); fill-opacity: 1.0" transform="matrix(1,0,0,1,0,0)" /><rect x="410" y="310" width="10" height="10" style="fill: rgb(0,0,0); fill-opacity: 1.0" transform="matrix(1,0,0,1,0,0)" /><rect x="460" y="310" width="10" height="10" style="fill: rgb(0,0,0); fill-opacity: 1.0" transform="matrix(1,0,0,1,0,0)" /><rect x="480" y="310" width="10" height="10" style="fill: rgb(0,0,0); fill-opacity: 1.0" transform="matrix(1,0,0,1,0,0)" /><rect x="660" y="310" width="10" height="10" style="fill: rgb(0,0,0); fill-opacity: 1.0" transform="matrix(1,0,0,1,0,0)" /><rect x="130" y="320" width="10" height="10" style="fill: rgb(0,0,0); fill-opacity: 1.0" transform="matrix(1,0,0,1,0,0)" /><rect x="170" y="320" width="10" height="10" style="fill: rgb(0,0,0); fill-opacity: 1.0" transform="matrix(1,0,0,1,0,0)" /><rect x="210" y="320" width="10" height="10" style="fill: rgb(0,0,0); fill-opacity: 1.0" transform="matrix(1,0,0,1,0,0)" /><rect x="400" y="320" width="10" height="10" style="fill: rgb(0,0,0); fill-opacity: 1.0" transform="matrix(1,0,0,1,0,0)" /><rect x="470" y="320" width="10" height="10" style="fill: rgb(0,0,0); fill-opacity: 1.0" transform="matrix(1,0,0,1,0,0)" /><rect x="660" y="320" width="10" height="10" style="fill: rgb(0,0,0); fill-opacity: 1.0" transform="matrix(1,0,0,1,0,0)" /><rect x="700" y="320" width="10" height="10" style="fill: rgb(0,0,0); fill-opacity: 1.0" transform="matrix(1,0,0,1,0,0)" /><rect x="740" y="320" width="10" height="10" style="fill: rgb(0,0,0); fill-opacity: 1.0" transform="matrix(1,0,0,1,0,0)" /><rect x="160" y="330" width="10" height="10" style="fill: rgb(0,0,0); fill-opacity: 1.0" transform="matrix(1,0,0,1,0,0)" /><rect x="250" y="330" width="10" height="10" style="fill: rgb(0,0,0); fill-opacity: 1.0" transform="matrix(1,0,0,1,0,0)" /><rect x="270" y="330" width="10" height="10" style="fill: rgb(0,0,0); fill-opacity: 1.0" transform="matrix(1,0,0,1,0,0)" /><rect x="360" y="330" width="10" height="10" style="fill: rgb(0,0,0); fill-opacity: 1.0" transform="matrix(1,0,0,1,0,0)" /><rect x="380" y="330" width="10" height="10" style="fill: rgb(0,0,0); fill-opacity: 1.0" transform="matrix(1,0,0,1,0,0)" /><rect x="490" y="330" width="10" height="10" style="fill: rgb(0,0,0); fill-opacity: 1.0" transform="matrix(1,0,0,1,0,0)" /><rect x="510" y="330" width="10" height="10" style="fill: rgb(0,0,0); fill-opacity: 1.0" transform="matrix(1,0,0,1,0,0)" /><rect x="600" y="330" width="10" height="10" style="fill: rgb(0,0,0); fill-opacity: 1.0" transform="matrix(1,0,0,1,0,0)" /><rect x="620" y="330" width="10" height="10" style="fill: rgb(0,0,0); fill-opacity: 1.0" transform="matrix(1,0,0,1,0,0)" /><rect x="710" y="330" width="10" height="10" style="fill: rgb(0,0,0); fill-opacity: 1.0" transform="matrix(1,0,0,1,0,0)" /><rect x="190" y="340" width="10" height="10" style="fill: rgb(0,0,0); fill-opacity: 1.0" transform="matrix(1,0,0,1,0,0)" /><rect x="360" y="340" width="10" height="10" style="fill: rgb(0,0,0); fill-opacity: 1.0" transform="matrix(1,0,0,1,0,0)" /><rect x="510" y="340" width="10" height="10" style="fill: rgb(0,0,0); fill-opacity: 1.0" transform="matrix(1,0,0,1,0,0)" /><rect x="680" y="340" width="10" height="10" style="fill: rgb(0,0,0); fill-opacity: 1.0" transform="matrix(1,0,0,1,0,0)" /><rect x="360" y="350" width="10" height="10" style="fill: rgb(0,0,0); fill-opacity: 1.0" transform="matrix(1,0,0,1,0,0)" /><rect x="510" y="350" width="10" height="10" style="fill: rgb(0,0,0); fill-opacity: 1.0" transform="matrix(1,0,0,1,0,0)" /><rect x="330" y="360" width="10" height="10" style="fill: rgb(0,0,0); fill-opacity: 1.0" transform="matrix(1,0,0,1,0,0)" /><rect x="340" y="360" width="10" height="10" style="fill: rgb(0,0,0); fill-opacity: 1.0" transform="matrix(1,0,0,1,0,0)" /><rect x="350" y="360" width="10" height="10" style="fill: rgb(0,0,0); fill-opacity: 1.0" transform="matrix(1,0,0,1,0,0)" /><rect x="360" y="360" width="10" height="10" style="fill: rgb(0,0,0); fill-opacity: 1.0" transform="matrix(1,0,0,1,0,0)" /><rect x="370" y="360" width="10" height="10" style="fill: rgb(0,0,0); fill-opacity: 1.0" transform="matrix(1,0,0,1,0,0)" /><rect x="500" y="360" width="10" height="10" style="fill: rgb(0,0,0); fill-opacity: 1.0" transform="matrix(1,0,0,1,0,0)" /><rect x="510" y="360" width="10" height="10" style="fill: rgb(0,0,0); fill-opacity: 1.0" transform="matrix(1,0,0,1,0,0)" /><rect x="520" y="360" width="10" height="10" style="fill: rgb(0,0,0); fill-opacity: 1.0" transform="matrix(1,0,0,1,0,0)" /><rect x="530" y="360" width="10" height="10" style="fill: rgb(0,0,0); fill-opacity: 1.0" transform="matrix(1,0,0,1,0,0)" /><rect x="540" y="360" width="10" height="10" style="fill: rgb(0,0,0); fill-opacity: 1.0" transform="matrix(1,0,0,1,0,0)" /><rect x="230" y="370" width="10" height="10" style="fill: rgb(0,0,0); fill-opacity: 1.0" transform="matrix(1,0,0,1,0,0)" /><rect x="360" y="370" width="10" height="10" style="fill: rgb(0,0,0); fill-opacity: 1.0" transform="matrix(1,0,0,1,0,0)" /><rect x="510" y="370" width="10" height="10" style="fill: rgb(0,0,0); fill-opacity: 1.0" transform="matrix(1,0,0,1,0,0)" /><rect x="640" y="370" width="10" height="10" style="fill: rgb(0,0,0); fill-opacity: 1.0" transform="matrix(1,0,0,1,0,0)" /><rect x="120" y="380" width="10" height="10" style="fill: rgb(0,0,0); fill-opacity: 1.0" transform="matrix(1,0,0,1,0,0)" /><rect x="190" y="380" width="10" height="10" style="fill: rgb(0,0,0); fill-opacity: 1.0" transform="matrix(1,0,0,1,0,0)" /><rect x="260" y="380" width="10" height="10" style="fill: rgb(0,0,0); fill-opacity: 1.0" transform="matrix(1,0,0,1,0,0)" /><rect x="330" y="380" width="10" height="10" style="fill: rgb(0,0,0); fill-opacity: 1.0" transform="matrix(1,0,0,1,0,0)" /><rect x="400" y="380" width="10" height="10" style="fill: rgb(0,0,0); fill-opacity: 1.0" transform="matrix(1,0,0,1,0,0)" /><rect x="470" y="380" width="10" height="10" style="fill: rgb(0,0,0); fill-opacity: 1.0" transform="matrix(1,0,0,1,0,0)" /><rect x="540" y="380" width="10" height="10" style="fill: rgb(0,0,0); fill-opacity: 1.0" transform="matrix(1,0,0,1,0,0)" /><rect x="610" y="380" width="10" height="10" style="fill: rgb(0,0,0); fill-opacity: 1.0" transform="matrix(1,0,0,1,0,0)" /><rect x="680" y="380" width="10" height="10" style="fill: rgb(0,0,0); fill-opacity: 1.0" transform="matrix(1,0,0,1,0,0)" /><rect x="750" y="380" width="10" height="10" style="fill: rgb(0,0,0); fill-opacity: 1.0" transform="matrix(1,0,0,1,0,0)" /><rect x="230" y="390" width="10" height="10" style="fill: rgb(0,0,0); fill-opacity: 1.0" transform="matrix(1,0,0,1,0,0)" /><rect x="260" y="390" width="10" height="10" style="fill: rgb(0,0,0); fill-opacity: 1.0" transform="matrix(1,0,0,1,0,0)" /><rect x="280" y="390" width="10" height="10" style="fill: rgb(0,0,0); fill-opacity: 1.0" transform="matrix(1,0,0,1,0,0)" /><rect x="310" y="390" width="10" height="10" style="fill: rgb(0,0,0); fill-opacity: 1.0" transform="matrix(1,0,0,1,0,0)" /><rect x="560" y="390" width="10" height="10" style="fill: rgb(0,0,0); fill-opacity: 1.0" transform="matrix(1,0,0,1,0,0)" /><rect x="590" y="390" width="10" height="10" style="fill: rgb(0,0,0); fill-opacity: 1.0" transform="matrix(1,0,0,1,0,0)" /><rect x="610" y="390" width="10" height="10" style="fill: rgb(0,0,0); fill-opacity: 1.0" transform="matrix(1,0,0,1,0,0)" /><rect x="640" y="390" width="10" height="10" style="fill: rgb(0,0,0); fill-opacity: 1.0" transform="matrix(1,0,0,1,0,0)" /><rect x="160" y="400" width="10" height="10" style="fill: rgb(0,0,0); fill-opacity: 1.0" transform="matrix(1,0,0,1,0,0)" /><rect x="210" y="400" width="10" height="10" style="fill: rgb(0,0,0); fill-opacity: 1.0" transform="matrix(1,0,0,1,0,0)" /><rect x="270" y="400" width="10" height="10" style="fill: rgb(0,0,0); fill-opacity: 1.0" transform="matrix(1,0,0,1,0,0)" /><rect x="320" y="400" width="10" height="10" style="fill: rgb(0,0,0); fill-opacity: 1.0" transform="matrix(1,0,0,1,0,0)" /><rect x="380" y="400" width="10" height="10" style="fill: rgb(0,0,0); fill-opacity: 1.0" transform="matrix(1,0,0,1,0,0)" /><rect x="430" y="400" width="10" height="10" style="fill: rgb(0,0,0); fill-opacity: 1.0" transform="matrix(1,0,0,1,0,0)" /><rect x="440" y="400" width="10" height="10" style="fill: rgb(0,0,0); fill-opacity: 1.0" transform="matrix(1,0,0,1,0,0)" /><rect x="490" y="400" width="10" height="10" style="fill: rgb(0,0,0); fill-opacity: 1.0" transform="matrix(1,0,0,1,0,0)" /><rect x="550" y="400" width="10" height="10" style="fill: rgb(0,0,0); fill-opacity: 1.0" transform="matrix(1,0,0,1,0,0)" /><rect x="600" y="400" width="10" height="10" style="fill: rgb(0,0,0); fill-opacity: 1.0" transform="matrix(1,0,0,1,0,0)" /><rect x="660" y="400" width="10" height="10" style="fill: rgb(0,0,0); fill-opacity: 1.0" transform="matrix(1,0,0,1,0,0)" /><rect x="710" y="400" width="10" height="10" style="fill: rgb(0,0,0); fill-opacity: 1.0" transform="matrix(1,0,0,1,0,0)" /><rect x="120" y="410" width="10" height="10" style="fill: rgb(0,0,0); fill-opacity: 1.0" transform="matrix(1,0,0,1,0,0)" /><rect x="140" y="410" width="10" height="10" style="fill: rgb(0,0,0); fill-opacity: 1.0" transform="matrix(1,0,0,1,0,0)" /><rect x="150" y="410" width="10" height="10" style="fill: rgb(0,0,0); fill-opacity: 1.0" transform="matrix(1,0,0,1,0,0)" /><rect x="180" y="410" width="10" height="10" style="fill: rgb(0,0,0); fill-opacity: 1.0" transform="matrix(1,0,0,1,0,0)" /><rect x="210" y="410" width="10" height="10" style="fill: rgb(0,0,0); fill-opacity: 1.0" transform="matrix(1,0,0,1,0,0)" /><rect x="220" y="410" width="10" height="10" style="fill: rgb(0,0,0); fill-opacity: 1.0" transform="matrix(1,0,0,1,0,0)" /><rect x="240" y="410" width="10" height="10" style="fill: rgb(0,0,0); fill-opacity: 1.0" transform="matrix(1,0,0,1,0,0)" /><rect x="310" y="410" width="10" height="10" style="fill: rgb(0,0,0); fill-opacity: 1.0" transform="matrix(1,0,0,1,0,0)" /><rect x="560" y="410" width="10" height="10" style="fill: rgb(0,0,0); fill-opacity: 1.0" transform="matrix(1,0,0,1,0,0)" /><rect x="630" y="410" width="10" height="10" style="fill: rgb(0,0,0); fill-opacity: 1.0" transform="matrix(1,0,0,1,0,0)" /><rect x="650" y="410" width="10" height="10" style="fill: rgb(0,0,0); fill-opacity: 1.0" transform="matrix(1,0,0,1,0,0)" /><rect x="660" y="410" width="10" height="10" style="fill: rgb(0,0,0); fill-opacity: 1.0" transform="matrix(1,0,0,1,0,0)" /><rect x="690" y="410" width="10" height="10" style="fill: rgb(0,0,0); fill-opacity: 1.0" transform="matrix(1,0,0,1,0,0)" /><rect x="720" y="410" width="10" height="10" style="fill: rgb(0,0,0); fill-opacity: 1.0" transform="matrix(1,0,0,1,0,0)" /><rect x="730" y="410" width="10" height="10" style="fill: rgb(0,0,0); fill-opacity: 1.0" transform="matrix(1,0,0,1,0,0)" /><rect x="750" y="410" width="10" height="10" style="fill: rgb(0,0,0); fill-opacity: 1.0" transform="matrix(1,0,0,1,0,0)" /><rect x="200" y="420" width="10" height="10" style="fill: rgb(0,0,0); fill-opacity: 1.0" transform="matrix(1,0,0,1,0,0)" /><rect x="670" y="420" width="10" height="10" style="fill: rgb(0,0,0); fill-opacity: 1.0" transform="matrix(1,0,0,1,0,0)" /><rect x="130" y="430" width="10" height="10" style="fill: rgb(0,0,0); fill-opacity: 1.0" transform="matrix(1,0,0,1,0,0)" /><rect x="230" y="430" width="10" height="10" style="fill: rgb(0,0,0); fill-opacity: 1.0" transform="matrix(1,0,0,1,0,0)" /><rect x="400" y="430" width="10" height="10" style="fill: rgb(0,0,0); fill-opacity: 1.0" transform="matrix(1,0,0,1,0,0)" /><rect x="470" y="430" width="10" height="10" style="fill: rgb(0,0,0); fill-opacity: 1.0" transform="matrix(1,0,0,1,0,0)" /><rect x="640" y="430" width="10" height="10" style="fill: rgb(0,0,0); fill-opacity: 1.0" transform="matrix(1,0,0,1,0,0)" /><rect x="740" y="430" width="10" height="10" style="fill: rgb(0,0,0); fill-opacity: 1.0" transform="matrix(1,0,0,1,0,0)" /><rect x="290" y="440" width="10" height="10" style="fill: rgb(0,0,0); fill-opacity: 1.0" transform="matrix(1,0,0,1,0,0)" /><rect x="320" y="440" width="10" height="10" style="fill: rgb(0,0,0); fill-opacity: 1.0" transform="matrix(1,0,0,1,0,0)" /><rect x="550" y="440" width="10" height="10" style="fill: rgb(0,0,0); fill-opacity: 1.0" transform="matrix(1,0,0,1,0,0)" /><rect x="580" y="440" width="10" height="10" style="fill: rgb(0,0,0); fill-opacity: 1.0" transform="matrix(1,0,0,1,0,0)" /><rect x="130" y="450" width="10" height="10" style="fill: rgb(0,0,0); fill-opacity: 1.0" transform="matrix(1,0,0,1,0,0)" /><rect x="140" y="450" width="10" height="10" style="fill: rgb(0,0,0); fill-opacity: 1.0" transform="matrix(1,0,0,1,0,0)" /><rect x="190" y="450" width="10" height="10" style="fill: rgb(0,0,0); fill-opacity: 1.0" transform="matrix(1,0,0,1,0,0)" /><rect x="280" y="450" width="10" height="10" style="fill: rgb(0,0,0); fill-opacity: 1.0" transform="matrix(1,0,0,1,0,0)" /><rect x="590" y="450" width="10" height="10" style="fill: rgb(0,0,0); fill-opacity: 1.0" transform="matrix(1,0,0,1,0,0)" /><rect x="680" y="450" width="10" height="10" style="fill: rgb(0,0,0); fill-opacity: 1.0" transform="matrix(1,0,0,1,0,0)" /><rect x="730" y="450" width="10" height="10" style="fill: rgb(0,0,0); fill-opacity: 1.0" transform="matrix(1,0,0,1,0,0)" /><rect x="740" y="450" width="10" height="10" style="fill: rgb(0,0,0); fill-opacity: 1.0" transform="matrix(1,0,0,1,0,0)" /><rect x="170" y="470" width="10" height="10" style="fill: rgb(0,0,0); fill-opacity: 1.0" transform="matrix(1,0,0,1,0,0)" /><rect x="220" y="470" width="10" height="10" style="fill: rgb(0,0,0); fill-opacity: 1.0" transform="matrix(1,0,0,1,0,0)" /><rect x="330" y="470" width="10" height="10" style="fill: rgb(0,0,0); fill-opacity: 1.0" transform="matrix(1,0,0,1,0,0)" /><rect x="540" y="470" width="10" height="10" style="fill: rgb(0,0,0); fill-opacity: 1.0" transform="matrix(1,0,0,1,0,0)" /><rect x="650" y="470" width="10" height="10" style="fill: rgb(0,0,0); fill-opacity: 1.0" transform="matrix(1,0,0,1,0,0)" /><rect x="700" y="470" width="10" height="10" style="fill: rgb(0,0,0); fill-opacity: 1.0" transform="matrix(1,0,0,1,0,0)" /><rect x="210" y="500" width="10" height="10" style="fill: rgb(0,0,0); fill-opacity: 1.0" transform="matrix(1,0,0,1,0,0)" /><rect x="340" y="500" width="10" height="10" style="fill: rgb(0,0,0); fill-opacity: 1.0" transform="matrix(1,0,0,1,0,0)" /><rect x="530" y="500" width="10" height="10" style="fill: rgb(0,0,0); fill-opacity: 1.0" transform="matrix(1,0,0,1,0,0)" /><rect x="660" y="500" width="10" height="10" style="fill: rgb(0,0,0); fill-opacity: 1.0" transform="matrix(1,0,0,1,0,0)" /><rect x="210" y="510" width="10" height="10" style="fill: rgb(0,0,0); fill-opacity: 1.0" transform="matrix(1,0,0,1,0,0)" /><rect x="220" y="510" width="10" height="10" style="fill: rgb(0,0,0); fill-opacity: 1.0" transform="matrix(1,0,0,1,0,0)" /><rect x="230" y="510" width="10" height="10" style="fill: rgb(0,0,0); fill-opacity: 1.0" transform="matrix(1,0,0,1,0,0)" /><rect x="240" y="510" width="10" height="10" style="fill: rgb(0,0,0); fill-opacity: 1.0" transform="matrix(1,0,0,1,0,0)" /><rect x="250" y="510" width="10" height="10" style="fill: rgb(0,0,0); fill-opacity: 1.0" transform="matrix(1,0,0,1,0,0)" /><rect x="260" y="510" width="10" height="10" style="fill: rgb(0,0,0); fill-opacity: 1.0" transform="matrix(1,0,0,1,0,0)" /><rect x="610" y="510" width="10" height="10" style="fill: rgb(0,0,0); fill-opacity: 1.0" transform="matrix(1,0,0,1,0,0)" /><rect x="620" y="510" width="10" height="10" style="fill: rgb(0,0,0); fill-opacity: 1.0" transform="matrix(1,0,0,1,0,0)" /><rect x="630" y="510" width="10" height="10" style="fill: rgb(0,0,0); fill-opacity: 1.0" transform="matrix(1,0,0,1,0,0)" /><rect x="640" y="510" width="10" height="10" style="fill: rgb(0,0,0); fill-opacity: 1.0" transform="matrix(1,0,0,1,0,0)" /><rect x="650" y="510" width="10" height="10" style="fill: rgb(0,0,0); fill-opacity: 1.0" transform="matrix(1,0,0,1,0,0)" /><rect x="660" y="510" width="10" height="10" style="fill: rgb(0,0,0); fill-opacity: 1.0" transform="matrix(1,0,0,1,0,0)" /><rect x="200" y="520" width="10" height="10" style="fill: rgb(0,0,0); fill-opacity: 1.0" transform="matrix(1,0,0,1,0,0)" /><rect x="320" y="520" width="10" height="10" style="fill: rgb(0,0,0); fill-opacity: 1.0" transform="matrix(1,0,0,1,0,0)" /><rect x="550" y="520" width="10" height="10" style="fill: rgb(0,0,0); fill-opacity: 1.0" transform="matrix(1,0,0,1,0,0)" /><rect x="670" y="520" width="10" height="10" style="fill: rgb(0,0,0); fill-opacity: 1.0" transform="matrix(1,0,0,1,0,0)" /><rect x="200" y="530" width="10" height="10" style="fill: rgb(0,0,0); fill-opacity: 1.0" transform="matrix(1,0,0,1,0,0)" /><rect x="370" y="530" width="10" height="10" style="fill: rgb(0,0,0); fill-opacity: 1.0" transform="matrix(1,0,0,1,0,0)" /><rect x="500" y="530" width="10" height="10" style="fill: rgb(0,0,0); fill-opacity: 1.0" transform="matrix(1,0,0,1,0,0)" /><rect x="670" y="530" width="10" height="10" style="fill: rgb(0,0,0); fill-opacity: 1.0" transform="matrix(1,0,0,1,0,0)" /><rect x="310" y="540" width="10" height="10" style="fill: rgb(0,0,0); fill-opacity: 1.0" transform="matrix(1,0,0,1,0,0)" /><rect x="400" y="540" width="10" height="10" style="fill: rgb(0,0,0); fill-opacity: 1.0" transform="matrix(1,0,0,1,0,0)" /><rect x="470" y="540" width="10" height="10" style="fill: rgb(0,0,0); fill-opacity: 1.0" transform="matrix(1,0,0,1,0,0)" /><rect x="560" y="540" width="10" height="10" style="fill: rgb(0,0,0); fill-opacity: 1.0" transform="matrix(1,0,0,1,0,0)" /><rect x="350" y="550" width="10" height="10" style="fill: rgb(0,0,0); fill-opacity: 1.0" transform="matrix(1,0,0,1,0,0)" /><rect x="430" y="550" width="10" height="10" style="fill: rgb(0,0,0); fill-opacity: 1.0" transform="matrix(1,0,0,1,0,0)" /><rect x="440" y="550" width="10" height="10" style="fill: rgb(0,0,0); fill-opacity: 1.0" transform="matrix(1,0,0,1,0,0)" /><rect x="520" y="550" width="10" height="10" style="fill: rgb(0,0,0); fill-opacity: 1.0" transform="matrix(1,0,0,1,0,0)" /><rect x="150" y="560" width="10" height="10" style="fill: rgb(0,0,0); fill-opacity: 1.0" transform="matrix(1,0,0,1,0,0)" /><rect x="170" y="560" width="10" height="10" style="fill: rgb(0,0,0); fill-opacity: 1.0" transform="matrix(1,0,0,1,0,0)" /><rect x="300" y="560" width="10" height="10" style="fill: rgb(0,0,0); fill-opacity: 1.0" transform="matrix(1,0,0,1,0,0)" /><rect x="330" y="560" width="10" height="10" style="fill: rgb(0,0,0); fill-opacity: 1.0" transform="matrix(1,0,0,1,0,0)" /><rect x="540" y="560" width="10" height="10" style="fill: rgb(0,0,0); fill-opacity: 1.0" transform="matrix(1,0,0,1,0,0)" /><rect x="570" y="560" width="10" height="10" style="fill: rgb(0,0,0); fill-opacity: 1.0" transform="matrix(1,0,0,1,0,0)" /><rect x="700" y="560" width="10" height="10" style="fill: rgb(0,0,0); fill-opacity: 1.0" transform="matrix(1,0,0,1,0,0)" /><rect x="720" y="560" width="10" height="10" style="fill: rgb(0,0,0); fill-opacity: 1.0" transform="matrix(1,0,0,1,0,0)" /><rect x="160" y="570" width="10" height="10" style="fill: rgb(0,0,0); fill-opacity: 1.0" transform="matrix(1,0,0,1,0,0)" /><rect x="170" y="570" width="10" height="10" style="fill: rgb(0,0,0); fill-opacity: 1.0" transform="matrix(1,0,0,1,0,0)" /><rect x="230" y="570" width="10" height="10" style="fill: rgb(0,0,0); fill-opacity: 1.0" transform="matrix(1,0,0,1,0,0)" /><rect x="240" y="570" width="10" height="10" style="fill: rgb(0,0,0); fill-opacity: 1.0" transform="matrix(1,0,0,1,0,0)" /><rect x="310" y="570" width="10" height="10" style="fill: rgb(0,0,0); fill-opacity: 1.0" transform="matrix(1,0,0,1,0,0)" /><rect x="560" y="570" width="10" height="10" style="fill: rgb(0,0,0); fill-opacity: 1.0" transform="matrix(1,0,0,1,0,0)" /><rect x="630" y="570" width="10" height="10" style="fill: rgb(0,0,0); fill-opacity: 1.0" transform="matrix(1,0,0,1,0,0)" /><rect x="640" y="570" width="10" height="10" style="fill: rgb(0,0,0); fill-opacity: 1.0" transform="matrix(1,0,0,1,0,0)" /><rect x="700" y="570" width="10" height="10" style="fill: rgb(0,0,0); fill-opacity: 1.0" transform="matrix(1,0,0,1,0,0)" /><rect x="710" y="570" width="10" height="10" style="fill: rgb(0,0,0); fill-opacity: 1.0" transform="matrix(1,0,0,1,0,0)" /><rect x="280" y="580" width="10" height="10" style="fill: rgb(0,0,0); fill-opacity: 1.0" transform="matrix(1,0,0,1,0,0)" /><rect x="430" y="580" width="10" height="10" style="fill: rgb(0,0,0); fill-opacity: 1.0" transform="matrix(1,0,0,1,0,0)" /><rect x="440" y="580" width="10" height="10" style="fill: rgb(0,0,0); fill-opacity: 1.0" transform="matrix(1,0,0,1,0,0)" /><rect x="590" y="580" width="10" height="10" style="fill: rgb(0,0,0); fill-opacity: 1.0" transform="matrix(1,0,0,1,0,0)" /><rect x="210" y="590" width="10" height="10" style="fill: rgb(0,0,0); fill-opacity: 1.0" transform="matrix(1,0,0,1,0,0)" /><rect x="230" y="590" width="10" height="10" style="fill: rgb(0,0,0); fill-opacity: 1.0" transform="matrix(1,0,0,1,0,0)" /><rect x="270" y="590" width="10" height="10" style="fill: rgb(0,0,0); fill-opacity: 1.0" transform="matrix(1,0,0,1,0,0)" /><rect x="290" y="590" width="10" height="10" style="fill: rgb(0,0,0); fill-opacity: 1.0" transform="matrix(1,0,0,1,0,0)" /><rect x="420" y="590" width="10" height="10" style="fill: rgb(0,0,0); fill-opacity: 1.0" transform="matrix(1,0,0,1,0,0)" /><rect x="450" y="590" width="10" height="10" style="fill: rgb(0,0,0); fill-opacity: 1.0" transform="matrix(1,0,0,1,0,0)" /><rect x="580" y="590" width="10" height="10" style="fill: rgb(0,0,0); fill-opacity: 1.0" transform="matrix(1,0,0,1,0,0)" /><rect x="600" y="590" width="10" height="10" style="fill: rgb(0,0,0); fill-opacity: 1.0" transform="matrix(1,0,0,1,0,0)" /><rect x="640" y="590" width="10" height="10" style="fill: rgb(0,0,0); fill-opacity: 1.0" transform="matrix(1,0,0,1,0,0)" /><rect x="660" y="590" width="10" height="10" style="fill: rgb(0,0,0); fill-opacity: 1.0" transform="matrix(1,0,0,1,0,0)" /><rect x="140" y="600" width="10" height="10" style="fill: rgb(0,0,0); fill-opacity: 1.0" transform="matrix(1,0,0,1,0,0)" /><rect x="210" y="600" width="10" height="10" style="fill: rgb(0,0,0); fill-opacity: 1.0" transform="matrix(1,0,0,1,0,0)" /><rect x="280" y="600" width="10" height="10" style="fill: rgb(0,0,0); fill-opacity: 1.0" transform="matrix(1,0,0,1,0,0)" /><rect x="590" y="600" width="10" height="10" style="fill: rgb(0,0,0); fill-opacity: 1.0" transform="matrix(1,0,0,1,0,0)" /><rect x="660" y="600" width="10" height="10" style="fill: rgb(0,0,0); fill-opacity: 1.0" transform="matrix(1,0,0,1,0,0)" /><rect x="730" y="600" width="10" height="10" style="fill: rgb(0,0,0); fill-opacity: 1.0" transform="matrix(1,0,0,1,0,0)" /><rect x="360" y="610" width="10" height="10" style="fill: rgb(0,0,0); fill-opacity: 1.0" transform="matrix(1,0,0,1,0,0)" /><rect x="510" y="610" width="10" height="10" style="fill: rgb(0,0,0); fill-opacity: 1.0" transform="matrix(1,0,0,1,0,0)" /><rect x="180" y="620" width="10" height="10" style="fill: rgb(0,0,0); fill-opacity: 1.0" transform="matrix(1,0,0,1,0,0)" /><rect x="200" y="620" width="10" height="10" style="fill: rgb(0,0,0); fill-opacity: 1.0" transform="matrix(1,0,0,1,0,0)" /><rect x="360" y="620" width="10" height="10" style="fill: rgb(0,0,0); fill-opacity: 1.0" transform="matrix(1,0,0,1,0,0)" /><rect x="510" y="620" width="10" height="10" style="fill: rgb(0,0,0); fill-opacity: 1.0" transform="matrix(1,0,0,1,0,0)" /><rect x="670" y="620" width="10" height="10" style="fill: rgb(0,0,0); fill-opacity: 1.0" transform="matrix(1,0,0,1,0,0)" /><rect x="690" y="620" width="10" height="10" style="fill: rgb(0,0,0); fill-opacity: 1.0" transform="matrix(1,0,0,1,0,0)" /><rect x="140" y="630" width="10" height="10" style="fill: rgb(0,0,0); fill-opacity: 1.0" transform="matrix(1,0,0,1,0,0)" /><rect x="200" y="630" width="10" height="10" style="fill: rgb(0,0,0); fill-opacity: 1.0" transform="matrix(1,0,0,1,0,0)" /><rect x="300" y="630" width="10" height="10" style="fill: rgb(0,0,0); fill-opacity: 1.0" transform="matrix(1,0,0,1,0,0)" /><rect x="360" y="630" width="10" height="10" style="fill: rgb(0,0,0); fill-opacity: 1.0" transform="matrix(1,0,0,1,0,0)" /><rect x="510" y="630" width="10" height="10" style="fill: rgb(0,0,0); fill-opacity: 1.0" transform="matrix(1,0,0,1,0,0)" /><rect x="570" y="630" width="10" height="10" style="fill: rgb(0,0,0); fill-opacity: 1.0" transform="matrix(1,0,0,1,0,0)" /><rect x="670" y="630" width="10" height="10" style="fill: rgb(0,0,0); fill-opacity: 1.0" transform="matrix(1,0,0,1,0,0)" /><rect x="730" y="630" width="10" height="10" style="fill: rgb(0,0,0); fill-opacity: 1.0" transform="matrix(1,0,0,1,0,0)" /><rect x="140" y="640" width="10" height="10" style="fill: rgb(0,0,0); fill-opacity: 1.0" transform="matrix(1,0,0,1,0,0)" /><rect x="280" y="640" width="10" height="10" style="fill: rgb(0,0,0); fill-opacity: 1.0" transform="matrix(1,0,0,1,0,0)" /><rect x="300" y="640" width="10" height="10" style="fill: rgb(0,0,0); fill-opacity: 1.0" transform="matrix(1,0,0,1,0,0)" /><rect x="360" y="640" width="10" height="10" style="fill: rgb(0,0,0); fill-opacity: 1.0" transform="matrix(1,0,0,1,0,0)" /><rect x="510" y="640" width="10" height="10" style="fill: rgb(0,0,0); fill-opacity: 1.0" transform="matrix(1,0,0,1,0,0)" /><rect x="570" y="640" width="10" height="10" style="fill: rgb(0,0,0); fill-opacity: 1.0" transform="matrix(1,0,0,1,0,0)" /><rect x="590" y="640" width="10" height="10" style="fill: rgb(0,0,0); fill-opacity: 1.0" transform="matrix(1,0,0,1,0,0)" /><rect x="730" y="640" width="10" height="10" style="fill: rgb(0,0,0); fill-opacity: 1.0" transform="matrix(1,0,0,1,0,0)" /><rect x="160" y="650" width="10" height="10" style="fill: rgb(0,0,0); fill-opacity: 1.0" transform="matrix(1,0,0,1,0,0)" /><rect x="360" y="650" width="10" height="10" style="fill: rgb(0,0,0); fill-opacity: 1.0" transform="matrix(1,0,0,1,0,0)" /><rect x="400" y="650" width="10" height="10" style="fill: rgb(0,0,0); fill-opacity: 1.0" transform="matrix(1,0,0,1,0,0)" /><rect x="470" y="650" width="10" height="10" style="fill: rgb(0,0,0); fill-opacity: 1.0" transform="matrix(1,0,0,1,0,0)" /><rect x="510" y="650" width="10" height="10" style="fill: rgb(0,0,0); fill-opacity: 1.0" transform="matrix(1,0,0,1,0,0)" /><rect x="710" y="650" width="10" height="10" style="fill: rgb(0,0,0); fill-opacity: 1.0" transform="matrix(1,0,0,1,0,0)" /><rect x="170" y="660" width="10" height="10" style="fill: rgb(0,0,0); fill-opacity: 1.0" transform="matrix(1,0,0,1,0,0)" /><rect x="180" y="660" width="10" height="10" style="fill: rgb(0,0,0); fill-opacity: 1.0" transform="matrix(1,0,0,1,0,0)" /><rect x="270" y="660" width="10" height="10" style="fill: rgb(0,0,0); fill-opacity: 1.0" transform="matrix(1,0,0,1,0,0)" /><rect x="280" y="660" width="10" height="10" style="fill: rgb(0,0,0); fill-opacity: 1.0" transform="matrix(1,0,0,1,0,0)" /><rect x="360" y="660" width="10" height="10" style="fill: rgb(0,0,0); fill-opacity: 1.0" transform="matrix(1,0,0,1,0,0)" /><rect x="370" y="660" width="10" height="10" style="fill: rgb(0,0,0); fill-opacity: 1.0" transform="matrix(1,0,0,1,0,0)" /><rect x="500" y="660" width="10" height="10" style="fill: rgb(0,0,0); fill-opacity: 1.0" transform="matrix(1,0,0,1,0,0)" /><rect x="510" y="660" width="10" height="10" style="fill: rgb(0,0,0); fill-opacity: 1.0" transform="matrix(1,0,0,1,0,0)" /><rect x="590" y="660" width="10" height="10" style="fill: rgb(0,0,0); fill-opacity: 1.0" transform="matrix(1,0,0,1,0,0)" /><rect x="600" y="660" width="10" height="10" style="fill: rgb(0,0,0); fill-opacity: 1.0" transform="matrix(1,0,0,1,0,0)" /><rect x="690" y="660" width="10" height="10" style="fill: rgb(0,0,0); fill-opacity: 1.0" transform="matrix(1,0,0,1,0,0)" /><rect x="700" y="660" width="10" height="10" style="fill: rgb(0,0,0); fill-opacity: 1.0" transform="matrix(1,0,0,1,0,0)" /><rect x="240" y="670" width="10" height="10" style="fill: rgb(0,0,0); fill-opacity: 1.0" transform="matrix(1,0,0,1,0,0)" /><rect x="250" y="670" width="10" height="10" style="fill: rgb(0,0,0); fill-opacity: 1.0" transform="matrix(1,0,0,1,0,0)" /><rect x="340" y="670" width="10" height="10" style="fill: rgb(0,0,0); fill-opacity: 1.0" transform="matrix(1,0,0,1,0,0)" /><rect x="350" y="670" width="10" height="10" style="fill: rgb(0,0,0); fill-opacity: 1.0" transform="matrix(1,0,0,1,0,0)" /><rect x="520" y="670" width="10" height="10" style="fill: rgb(0,0,0); fill-opacity: 1.0" transform="matrix(1,0,0,1,0,0)" /><rect x="530" y="670" width="10" height="10" style="fill: rgb(0,0,0); fill-opacity: 1.0" transform="matrix(1,0,0,1,0,0)" /><rect x="620" y="670" width="10" height="10" style="fill: rgb(0,0,0); fill-opacity: 1.0" transform="matrix(1,0,0,1,0,0)" /><rect x="630" y="670" width="10" height="10" style="fill: rgb(0,0,0); fill-opacity: 1.0" transform="matrix(1,0,0,1,0,0)" /><rect x="420" y="680" width="10" height="10" style="fill: rgb(0,0,0); fill-opacity: 1.0" transform="matrix(1,0,0,1,0,0)" /><rect x="450" y="680" width="10" height="10" style="fill: rgb(0,0,0); fill-opacity: 1.0" transform="matrix(1,0,0,1,0,0)" /><rect x="170" y="690" width="10" height="10" style="fill: rgb(0,0,0); fill-opacity: 1.0" transform="matrix(1,0,0,1,0,0)" /><rect x="210" y="690" width="10" height="10" style="fill: rgb(0,0,0); fill-opacity: 1.0" transform="matrix(1,0,0,1,0,0)" /><rect x="250" y="690" width="10" height="10" style="fill: rgb(0,0,0); fill-opacity: 1.0" transform="matrix(1,0,0,1,0,0)" /><rect x="620" y="690" width="10" height="10" style="fill: rgb(0,0,0); fill-opacity: 1.0" transform="matrix(1,0,0,1,0,0)" /><rect x="660" y="690" width="10" height="10" style="fill: rgb(0,0,0); fill-opacity: 1.0" transform="matrix(1,0,0,1,0,0)" /><rect x="700" y="690" width="10" height="10" style="fill: rgb(0,0,0); fill-opacity: 1.0" transform="matrix(1,0,0,1,0,0)" /><rect x="180" y="700" width="10" height="10" style="fill: rgb(0,0,0); fill-opacity: 1.0" transform="matrix(1,0,0,1,0,0)" /><rect x="210" y="700" width="10" height="10" style="fill: rgb(0,0,0); fill-opacity: 1.0" transform="matrix(1,0,0,1,0,0)" /><rect x="300" y="700" width="10" height="10" style="fill: rgb(0,0,0); fill-opacity: 1.0" transform="matrix(1,0,0,1,0,0)" /><rect x="310" y="700" width="10" height="10" style="fill: rgb(0,0,0); fill-opacity: 1.0" transform="matrix(1,0,0,1,0,0)" /><rect x="400" y="700" width="10" height="10" style="fill: rgb(0,0,0); fill-opacity: 1.0" transform="matrix(1,0,0,1,0,0)" /><rect x="470" y="700" width="10" height="10" style="fill: rgb(0,0,0); fill-opacity: 1.0" transform="matrix(1,0,0,1,0,0)" /><rect x="560" y="700" width="10" height="10" style="fill: rgb(0,0,0); fill-opacity: 1.0" transform="matrix(1,0,0,1,0,0)" /><rect x="570" y="700" width="10" height="10" style="fill: rgb(0,0,0); fill-opacity: 1.0" transform="matrix(1,0,0,1,0,0)" /><rect x="660" y="700" width="10" height="10" style="fill: rgb(0,0,0); fill-opacity: 1.0" transform="matrix(1,0,0,1,0,0)" /><rect x="690" y="700" width="10" height="10" style="fill: rgb(0,0,0); fill-opacity: 1.0" transform="matrix(1,0,0,1,0,0)" /><rect x="150" y="710" width="10" height="10" style="fill: rgb(0,0,0); fill-opacity: 1.0" transform="matrix(1,0,0,1,0,0)" /><rect x="220" y="710" width="10" height="10" style="fill: rgb(0,0,0); fill-opacity: 1.0" transform="matrix(1,0,0,1,0,0)" /><rect x="300" y="710" width="10" height="10" style="fill: rgb(0,0,0); fill-opacity: 1.0" transform="matrix(1,0,0,1,0,0)" /><rect x="570" y="710" width="10" height="10" style="fill: rgb(0,0,0); fill-opacity: 1.0" transform="matrix(1,0,0,1,0,0)" /><rect x="650" y="710" width="10" height="10" style="fill: rgb(0,0,0); fill-opacity: 1.0" transform="matrix(1,0,0,1,0,0)" /><rect x="720" y="710" width="10" height="10" style="fill: rgb(0,0,0); fill-opacity: 1.0" transform="matrix(1,0,0,1,0,0)" /><rect x="160" y="720" width="10" height="10" style="fill: rgb(0,0,0); fill-opacity: 1.0" transform="matrix(1,0,0,1,0,0)" /><rect x="310" y="720" width="10" height="10" style="fill: rgb(0,0,0); fill-opacity: 1.0" transform="matrix(1,0,0,1,0,0)" /><rect x="560" y="720" width="10" height="10" style="fill: rgb(0,0,0); fill-opacity: 1.0" transform="matrix(1,0,0,1,0,0)" /><rect x="710" y="720" width="10" height="10" style="fill: rgb(0,0,0); fill-opacity: 1.0" transform="matrix(1,0,0,1,0,0)" /><rect x="230" y="730" width="10" height="10" style="fill: rgb(0,0,0); fill-opacity: 1.0" transform="matrix(1,0,0,1,0,0)" /><rect x="240" y="730" width="10" height="10" style="fill: rgb(0,0,0); fill-opacity: 1.0" transform="matrix(1,0,0,1,0,0)" /><rect x="270" y="730" width="10" height="10" style="fill: rgb(0,0,0); fill-opacity: 1.0" transform="matrix(1,0,0,1,0,0)" /><rect x="420" y="730" width="10" height="10" style="fill: rgb(0,0,0); fill-opacity: 1.0" transform="matrix(1,0,0,1,0,0)" /><rect x="450" y="730" width="10" height="10" style="fill: rgb(0,0,0); fill-opacity: 1.0" transform="matrix(1,0,0,1,0,0)" /><rect x="600" y="730" width="10" height="10" style="fill: rgb(0,0,0); fill-opacity: 1.0" transform="matrix(1,0,0,1,0,0)" /><rect x="630" y="730" width="10" height="10" style="fill: rgb(0,0,0); fill-opacity: 1.0" transform="matrix(1,0,0,1,0,0)" /><rect x="640" y="730" width="10" height="10" style="fill: rgb(0,0,0); fill-opacity: 1.0" transform="matrix(1,0,0,1,0,0)" /><rect x="420" y="740" width="10" height="10" style="fill: rgb(0,0,0); fill-opacity: 1.0" transform="matrix(1,0,0,1,0,0)" /><rect x="450" y="740" width="10" height="10" style="fill: rgb(0,0,0); fill-opacity: 1.0" transform="matrix(1,0,0,1,0,0)" /></svg>