<?xml version="1.0" encoding="utf-8"?>
<!-- Generator: Adobe Illustrator 16.0.4, SVG Export Plug-In . SVG Version: 6.00 Build 0)  -->
<!DOCTYPE svg PUBLIC "-//W3C//DTD SVG 1.1//EN" "http://www.w3.org/Graphics/SVG/1.1/DTD/svg11.dtd">
<svg version="1.1" xmlns="http://www.w3.org/2000/svg" xmlns:xlink="http://www.w3.org/1999/xlink" x="0px" y="0px"
	 width="357.324px" height="237.086px" viewBox="0 -70.667 357.324 237.086" enable-background="new 0 -70.667 357.324 237.086"
	 xml:space="preserve">
<g id="Layer_1">
	<rect x="-5.671" y="107.833" fill="#AF2E2E" width="368.514" height="17.365"/>
	<g>
		<g>
			<polygon fill="#9E2626" points="330.258,40.921 313.975,40.921 314.055,40.782 313.836,40.782 341.1,-5.582 352.02,-5.582 
				357.434,-5.582 357.434,-19.367 349.764,-19.367 349.844,-19.506 349.624,-19.506 357.434,-32.678 357.434,-42.59 
				259.024,125.362 286.422,125.362 357.434,3.83 357.434,-5.427 			"/>
			<polygon fill="#721E1E" points="349.844,-19.506 349.764,-19.367 357.434,-19.367 357.434,-19.506 			"/>
			<polygon fill="#721E1E" points="314.055,40.782 313.975,40.921 330.258,40.921 357.434,-5.427 357.434,-5.582 330.168,40.782 			
				"/>
			<polygon fill="#AF2E2E" points="259.024,125.362 357.434,-42.59 357.434,-70.317 242.48,125.362 			"/>
			<polygon fill="#B73232" points="-5.773,107.833 -5.773,124.9 260.156,124.9 252.777,107.833 			"/>
			<g>
				<polygon fill="#721E1E" points="357.367,-5.582 357.367,-5.582 357.367,-5.427 				"/>
			</g>
		</g>
		<g>
			<polygon fill="#FF0000" points="357.367,-70.317 357.523,-70.058 357.523,-70.317 			"/>
			<polygon fill="#9E2626" points="357.367,-19.367 357.367,-5.582 357.367,-5.427 357.367,3.83 357.523,3.567 357.523,-19.367 			
				"/>
			<polygon fill="#9E2626" points="357.523,-42.854 357.367,-42.59 357.367,-32.678 357.523,-32.941 			"/>
			<polygon fill="#912424" points="357.523,-32.941 357.367,-32.678 357.367,-24.146 357.523,-24.146 			"/>
			<rect x="357.367" y="-19.506" fill="#721E1E" width="0.156" height="0.139"/>
			<rect x="357.367" y="-24.146" fill="#721E1E" width="0.156" height="4.642"/>
		</g>
		<path fill="#9E2626" d="M340.663-8.291c0,0-29.821,49.663-29.373,49.888c0.448,0.226,20.517,1.794,20.517,1.794l25.717-46.525
			v-3.924L340.663-8.291z"/>
		<polygon fill="#912424" points="327.51,36.139 352.02,-5.582 341.1,-5.582 313.836,40.782 314.055,40.782 316.721,36.139 		"/>
		<polygon fill="#721E1E" points="327.51,36.139 316.721,36.139 314.055,40.782 330.168,40.782 357.434,-5.582 352.02,-5.582 		"/>
		<polygon fill="#912424" points="292.493,96.537 317.003,54.816 306.083,54.816 278.819,101.179 279.038,101.179 281.704,96.537 		
			"/>
		<polygon fill="#721E1E" points="292.493,96.537 281.704,96.537 279.038,101.179 295.151,101.179 322.417,54.816 317.003,54.816 		
			"/>
		<polygon fill="#9E2626" points="357.367,-15.914 357.367,-36.542 349.764,-24.146 347.838,-17.483 		"/>
		<polygon fill="#912424" points="349.844,-19.506 352.51,-24.146 357.434,-24.146 357.434,-32.678 349.624,-19.506 		"/>
		<polygon fill="#721E1E" points="357.434,-24.146 352.51,-24.146 349.844,-19.506 357.434,-19.506 		"/>
	</g>
	<circle fill="#912424" cx="345.768" cy="-37.766" r="4.125"/>
	<g>
		<line fill="none" stroke="#D3D3D3" stroke-width="1.5" stroke-miterlimit="10" x1="0" y1="21.478" x2="20.074" y2="-13.291"/>
		
			<line fill="none" stroke="#D3D3D3" stroke-width="1.5" stroke-miterlimit="10" x1="303.319" y1="115.017" x2="357.324" y2="21.478"/>
		<line fill="none" stroke="#D3D3D3" stroke-width="1.5" stroke-miterlimit="10" x1="0" y1="40.979" x2="22.349" y2="2.271"/>
		
			<line fill="none" stroke="#D3D3D3" stroke-width="1.5" stroke-miterlimit="10" x1="314.578" y1="115.017" x2="357.324" y2="40.979"/>
		<line fill="none" stroke="#D3D3D3" stroke-width="1.5" stroke-miterlimit="10" x1="0" y1="60.479" x2="25.734" y2="15.906"/>
		
			<line fill="none" stroke="#D3D3D3" stroke-width="1.5" stroke-miterlimit="10" x1="325.837" y1="115.017" x2="357.324" y2="60.479"/>
		<line fill="none" stroke="#D3D3D3" stroke-width="1.5" stroke-miterlimit="10" x1="0" y1="79.98" x2="30.073" y2="27.892"/>
		
			<line fill="none" stroke="#D3D3D3" stroke-width="1.5" stroke-miterlimit="10" x1="337.096" y1="115.017" x2="357.324" y2="79.98"/>
		<line fill="none" stroke="#D3D3D3" stroke-width="1.5" stroke-miterlimit="10" x1="0" y1="99.481" x2="35.243" y2="38.438"/>
		
			<line fill="none" stroke="#D3D3D3" stroke-width="1.5" stroke-miterlimit="10" x1="348.354" y1="115.017" x2="357.324" y2="99.481"/>
		<line fill="none" stroke="#D3D3D3" stroke-width="1.5" stroke-miterlimit="10" x1="2.289" y1="115.017" x2="41.152" y2="47.706"/>
		
			<line fill="none" stroke="#D3D3D3" stroke-width="1.5" stroke-miterlimit="10" x1="13.548" y1="115.017" x2="47.725" y2="55.822"/>
		
			<line fill="none" stroke="#D3D3D3" stroke-width="1.5" stroke-miterlimit="10" x1="24.807" y1="115.017" x2="54.903" y2="62.888"/>
		<line fill="none" stroke="#D3D3D3" stroke-width="1.5" stroke-miterlimit="10" x1="36.065" y1="115.017" x2="62.64" y2="68.989"/>
		
			<line fill="none" stroke="#D3D3D3" stroke-width="1.5" stroke-miterlimit="10" x1="47.325" y1="115.017" x2="70.903" y2="74.177"/>
		<path fill="none" stroke="#D3D3D3" stroke-width="1.5" stroke-miterlimit="10" d="M144.868-34.434"/>
		<line fill="none" stroke="#D3D3D3" stroke-width="1.5" stroke-miterlimit="10" x1="58.583" y1="115.017" x2="79.66" y2="78.509"/>
		
			<line fill="none" stroke="#D3D3D3" stroke-width="1.5" stroke-miterlimit="10" x1="69.842" y1="115.017" x2="88.898" y2="82.008"/>
		<line fill="none" stroke="#D3D3D3" stroke-width="1.5" stroke-miterlimit="10" x1="81.102" y1="115.017" x2="98.62" y2="84.671"/>
		
			<line fill="none" stroke="#D3D3D3" stroke-width="1.5" stroke-miterlimit="10" x1="92.359" y1="115.017" x2="108.842" y2="86.47"/>
		
			<line fill="none" stroke="#D3D3D3" stroke-width="1.5" stroke-miterlimit="10" x1="103.619" y1="115.017" x2="119.889" y2="86.838"/>
		
			<line fill="none" stroke="#D3D3D3" stroke-width="1.5" stroke-miterlimit="10" x1="114.878" y1="115.017" x2="131.107" y2="86.907"/>
		
			<line fill="none" stroke="#D3D3D3" stroke-width="1.5" stroke-miterlimit="10" x1="126.136" y1="115.017" x2="142.961" y2="85.875"/>
		
			<line fill="none" stroke="#D3D3D3" stroke-width="1.5" stroke-miterlimit="10" x1="137.395" y1="115.017" x2="155.744" y2="83.235"/>
		
			<line fill="none" stroke="#D3D3D3" stroke-width="1.5" stroke-miterlimit="10" x1="148.654" y1="115.017" x2="168.107" y2="81.324"/>
		
			<line fill="none" stroke="#D3D3D3" stroke-width="1.5" stroke-miterlimit="10" x1="159.913" y1="115.017" x2="181.5" y2="77.626"/>
		
			<line fill="none" stroke="#D3D3D3" stroke-width="1.5" stroke-miterlimit="10" x1="171.172" y1="115.017" x2="195.527" y2="72.83"/>
		
			<line fill="none" stroke="#D3D3D3" stroke-width="1.5" stroke-miterlimit="10" x1="182.431" y1="115.017" x2="210.275" y2="66.789"/>
		
			<line fill="none" stroke="#D3D3D3" stroke-width="1.5" stroke-miterlimit="10" x1="193.689" y1="115.017" x2="225.854" y2="59.307"/>
		
			<line fill="none" stroke="#D3D3D3" stroke-width="1.5" stroke-miterlimit="10" x1="204.948" y1="115.017" x2="242.412" y2="50.13"/>
		
			<line fill="none" stroke="#D3D3D3" stroke-width="1.5" stroke-miterlimit="10" x1="216.207" y1="115.017" x2="260.156" y2="38.894"/>
		
			<line fill="none" stroke="#D3D3D3" stroke-width="1.5" stroke-miterlimit="10" x1="227.466" y1="115.017" x2="279.411" y2="25.044"/>
		
			<line fill="none" stroke="#D3D3D3" stroke-width="1.5" stroke-miterlimit="10" x1="238.725" y1="115.017" x2="300.718" y2="7.641"/>
	</g>
	<path fill="none" stroke="#EFEFEF" stroke-width="4" stroke-linecap="round" stroke-linejoin="round" stroke-miterlimit="10" d="
		M345.768-37.766c0,0-100.742,124.971-225.221,124.971c0,0-108.852,4.147-101.033-134.564"/>
	<g>
		<polygon fill="#FF0000" points="35.651,-56.59 27.542,-70.313 -0.099,-70.317 8.173,-56.59 		"/>
		<polyline fill="#9E2626" points="-0.099,-32.678 8.594,-47.358 24.926,-47.358 25.016,-47.358 8.504,-19.367 -0.099,-19.367 
			-0.099,-5.582 -0.099,-5.582 -0.099,-5.427 -0.099,3.83 35.718,-56.59 35.651,-56.59 8.173,-56.59 -0.099,-42.59 -0.099,-32.678 
					"/>
		<polyline fill="#721E1E" points="-0.099,-19.367 8.504,-19.367 8.414,-19.506 -0.099,-19.506 -0.099,-19.367 		"/>
		<polygon fill="#721E1E" points="-0.099,-5.582 -0.099,-5.582 -0.099,-5.427 		"/>
		<polygon fill="#AF2E2E" points="8.173,-56.59 -0.099,-70.317 -0.099,-42.59 		"/>
	</g>
	<polygon fill="#9E2626" points="-0.099,-39.662 -0.099,-16.105 8.939,-16.105 28.333,-49.667 8.504,-51.084 	"/>
	<polygon fill="#912424" points="5.755,-24.146 19.514,-47.358 8.594,-47.358 -0.099,-32.678 -0.099,-24.146 	"/>
	<polygon fill="#721E1E" points="-0.099,-24.146 -0.099,-19.506 8.414,-19.506 24.926,-47.358 19.514,-47.358 5.755,-24.146 	"/>
	<path fill="#9E2626" d="M-5.773,124.9v17.977h368.616V124.9H-5.773z M32.526,134.757H1.958l2.848-4.983h30.734L32.526,134.757z
		 M73.052,134.757H42.483l2.848-4.983h30.734L73.052,134.757z M111.89,134.757H81.32l2.848-4.983h30.734L111.89,134.757z
		 M151.579,134.757h-30.57l2.848-4.983h30.734L151.579,134.757z M191.269,134.757h-30.57l2.848-4.983h30.734L191.269,134.757z
		 M230.957,134.757h-30.57l2.848-4.983h30.734L230.957,134.757z M270.647,134.757h-30.57l2.848-4.983h30.734L270.647,134.757z
		 M310.337,134.757h-30.57l2.848-4.983h30.734L310.337,134.757z M350.023,134.757h-30.57l2.848-4.983h30.734L350.023,134.757z"/>
	<g>
		<g>
			<polygon fill="#721E1E" points="114.902,129.774 111.89,134.757 81.32,134.757 79.378,138.14 113.827,138.14 118.548,129.774 			
				"/>
		</g>
		<g>
			<polygon fill="#721E1E" points="76.064,129.774 73.052,134.757 42.482,134.757 40.54,138.14 74.989,138.14 79.71,129.774 			"/>
		</g>
	</g>
	<g>
		<g>
			<polygon fill="#721E1E" points="154.591,129.774 151.579,134.757 121.009,134.757 119.066,138.14 153.517,138.14 
				158.237,129.774 			"/>
		</g>
	</g>
	<g>
		<g>
			<polygon fill="#721E1E" points="194.28,129.774 191.269,134.757 160.698,134.757 158.755,138.14 193.206,138.14 197.927,129.774 
							"/>
		</g>
	</g>
	<g>
		<g>
			<polygon fill="#721E1E" points="233.969,129.774 230.957,134.757 200.387,134.757 198.443,138.14 232.895,138.14 
				237.615,129.774 			"/>
		</g>
	</g>
	<g>
		<g>
			<polygon fill="#721E1E" points="273.659,129.774 270.647,134.757 240.077,134.757 238.134,138.14 272.585,138.14 
				277.306,129.774 			"/>
		</g>
	</g>
	<g>
		<g>
			<polygon fill="#721E1E" points="313.349,129.774 310.337,134.757 279.767,134.757 277.823,138.14 312.274,138.14 
				316.995,129.774 			"/>
		</g>
	</g>
	<g>
		<g>
			<polygon fill="#721E1E" points="353.035,129.774 350.023,134.757 319.453,134.757 317.51,138.14 351.961,138.14 356.682,129.774 
							"/>
		</g>
	</g>
	<g>
		<polygon fill="#721E1E" points="35.525,129.774 32.512,134.757 1.943,134.757 0,138.14 34.449,138.14 39.17,129.774 		"/>
	</g>
</g>
<g id="Layer_2">
</g>
</svg>
