<?xml version="1.0" encoding="utf-8"?>
<!-- Generator: Adobe Illustrator 16.0.4, SVG Export Plug-In . SVG Version: 6.00 Build 0)  -->
<!DOCTYPE svg PUBLIC "-//W3C//DTD SVG 1.1//EN" "http://www.w3.org/Graphics/SVG/1.1/DTD/svg11.dtd">
<svg version="1.1" id="Layer_1" xmlns="http://www.w3.org/2000/svg" xmlns:xlink="http://www.w3.org/1999/xlink" x="0px" y="0px"
	 width="94.25px" height="71.205px" viewBox="0 0 94.25 71.205" enable-background="new 0 0 94.25 71.205" xml:space="preserve">
<g>
	<polygon fill="#F7F7F7" points="53.036,41.758 50.652,40.714 78.046,32.094 80.668,33.244 80.668,52.43 53.036,60.943 
		50.652,59.881 50.652,40.714 	"/>
</g>
<g>
	<polygon fill="#D1D1D1" points="45.74,38.563 45.74,36.581 73.385,28.396 73.385,30.049 80.668,33.244 53.036,41.758 	"/>
</g>
<g>
	<g enable-background="new    ">
		<g>
			<polygon fill="#D1D1D1" points="13.583,24.174 41.159,15.66 48.332,18.86 20.641,27.375 			"/>
		</g>
		<g>
			<polygon fill="#F7F7F7" points="45.74,29.959 43.913,29.145 71.508,20.61 73.385,21.445 73.385,30.049 45.74,38.563 
				43.913,37.395 44.275,29.306 			"/>
		</g>
		<g>
			<polygon fill="#D1D1D1" points="20.641,18.775 48.24,10.261 73.385,21.445 45.74,29.959 			"/>
		</g>
		<g>
			<polygon fill="#EAEAEA" points="20.641,18.775 45.74,29.959 45.74,38.563 53.036,41.758 53.036,60.943 13.583,43.362 
				13.583,24.174 20.641,27.375 			"/>
		</g>
	</g>
</g>
</svg>
