<?xml version="1.0" encoding="utf-8"?>
<!-- Generator: Adobe Illustrator 16.0.4, SVG Export Plug-In . SVG Version: 6.00 Build 0)  -->
<!DOCTYPE svg PUBLIC "-//W3C//DTD SVG 1.1//EN" "http://www.w3.org/Graphics/SVG/1.1/DTD/svg11.dtd">
<svg version="1.1" id="Layer_1" xmlns="http://www.w3.org/2000/svg" xmlns:xlink="http://www.w3.org/1999/xlink" x="0px" y="0px"
	 width="250px" height="72px" viewBox="0 0 250 72" enable-background="new 0 0 250 72" xml:space="preserve">
<path opacity="0.5" fill="#FFFFFF" d="M125.452,38.886c-3.966,0-7.198,3.019-7.198,7.173c0,4.127,3.232,7.172,7.198,7.172
	c3.966,0,7.196-3.045,7.196-7.172C132.648,41.902,129.418,38.886,125.452,38.886z M125.452,50.402c-2.173,0-4.047-1.791-4.047-4.344
	c0-2.582,1.875-4.347,4.047-4.347c2.174,0,4.047,1.765,4.047,4.347C129.499,48.611,127.626,50.402,125.452,50.402z M109.749,38.886
	c-3.966,0-7.199,3.019-7.199,7.173c0,4.127,3.232,7.172,7.199,7.172s7.198-3.045,7.198-7.172
	C116.947,41.902,113.715,38.886,109.749,38.886z M109.749,50.402c-2.173,0-4.048-1.791-4.048-4.344c0-2.582,1.875-4.347,4.048-4.347
	s4.047,1.765,4.047,4.347C113.796,48.611,111.922,50.402,109.749,50.402z M91.068,41.088v3.041h7.281
	c-0.218,1.713-0.788,2.96-1.658,3.83c-1.059,1.061-2.717,2.227-5.624,2.227c-4.481,0-7.985-3.609-7.985-8.093
	c0-4.481,3.503-8.096,7.985-8.096c2.419,0,4.184,0.951,5.488,2.173l2.146-2.146c-1.821-1.739-4.238-3.069-7.634-3.069
	c-6.139,0-11.3,4.999-11.3,11.138c0,6.138,5.161,11.138,11.3,11.138c3.314,0,5.813-1.088,7.769-3.123
	c2.01-2.012,2.636-4.836,2.636-7.119c0-0.704-0.055-1.356-0.163-1.899L91.068,41.088L91.068,41.088z M167.463,43.449
	c-0.6-1.602-2.416-4.563-6.14-4.563c-3.693,0-6.763,2.908-6.763,7.173c0,4.019,3.041,7.172,7.115,7.172
	c3.287,0,5.188-2.01,5.979-3.179l-2.446-1.631c-0.813,1.196-1.929,1.981-3.531,1.981s-2.743-0.73-3.477-2.172l9.589-3.965
	L167.463,43.449z M157.686,45.842c-0.082-2.771,2.146-4.184,3.748-4.184c1.25,0,2.309,0.625,2.662,1.52L157.686,45.842z
	 M149.891,52.795h3.148V31.716h-3.148V52.795z M144.727,40.489h-0.107c-0.706-0.843-2.064-1.604-3.775-1.604
	c-3.587,0-6.873,3.153-6.873,7.2c0,4.021,3.286,7.144,6.873,7.144c1.711,0,3.069-0.761,3.775-1.631h0.107v1.033
	c0,2.744-1.467,4.21-3.83,4.21c-1.928,0-3.123-1.386-3.611-2.553l-2.744,1.14c0.788,1.903,2.879,4.238,6.355,4.238
	c3.695,0,6.819-2.173,6.819-7.471V39.32h-2.989V40.489z M141.113,50.402c-2.172,0-3.992-1.818-3.992-4.316
	c0-2.527,1.82-4.373,3.992-4.373c2.146,0,3.83,1.846,3.83,4.373C144.943,48.584,143.26,50.402,141.113,50.402z M182.223,31.716
	h-7.537v21.079h3.145v-7.986h4.395c3.487,0,6.916-2.524,6.916-6.545C189.139,34.241,185.711,31.716,182.223,31.716z M182.307,41.876
	h-4.478V34.65h4.478c2.351,0,3.687,1.948,3.687,3.612C185.992,39.896,184.656,41.876,182.307,41.876z M201.748,38.85
	c-2.277,0-4.637,1.002-5.614,3.227l2.794,1.164c0.596-1.164,1.709-1.545,2.875-1.545c1.627,0,3.281,0.977,3.309,2.712v0.218
	c-0.57-0.324-1.789-0.812-3.282-0.812c-3.011,0-6.073,1.651-6.073,4.746c0,2.819,2.469,4.637,5.233,4.637
	c2.114,0,3.282-0.95,4.013-2.062h0.109v1.629h3.037V44.68C208.146,40.936,205.354,38.85,201.748,38.85z M201.367,50.4
	c-1.028,0-2.467-0.518-2.467-1.789c0-1.629,1.789-2.252,3.336-2.252c1.383,0,2.033,0.297,2.873,0.705
	C204.867,49.018,203.186,50.4,201.367,50.4z M219.211,39.309l-3.605,9.141h-0.108l-3.741-9.141h-3.39l5.614,12.771l-3.203,7.105
	h3.283l8.649-19.877H219.211L219.211,39.309z M190.874,52.795h3.146V31.716h-3.146V52.795z"/>
<g opacity="0.5">
	<path opacity="0.12" enable-background="new    " d="M28.164,56.704c-0.491-0.521-0.781-1.325-0.781-2.368v0.245
		c0,1.043,0.291,1.849,0.781,2.37l0.125-0.127L28.164,56.704z"/>
	
		<linearGradient id="SVGID_1_" gradientUnits="userSpaceOnUse" x1="253.3252" y1="439.8975" x2="225.029" y2="468.1936" gradientTransform="matrix(1 0 0 1 -206 -423)">
		<stop  offset="0" style="stop-color:#00A0FF"/>
		<stop  offset="0.0066" style="stop-color:#00A1FF"/>
		<stop  offset="0.2601" style="stop-color:#00BEFF"/>
		<stop  offset="0.5122" style="stop-color:#00D2FF"/>
		<stop  offset="0.7604" style="stop-color:#00DFFF"/>
		<stop  offset="1" style="stop-color:#00E3FF"/>
	</linearGradient>
	<path fill="url(#SVGID_1_)" d="M28.164,14.921c-0.491,0.519-0.781,1.325-0.781,2.369v37.288c0,1.046,0.291,1.852,0.781,2.37
		l0.124,0.12l20.889-20.887v-0.246v-0.246l-20.889-20.89L28.164,14.921z"/>
	
		<linearGradient id="SVGID_2_" gradientUnits="userSpaceOnUse" x1="273.6152" y1="458.9365" x2="232.8185" y2="458.9365" gradientTransform="matrix(1 0 0 1 -206 -423)">
		<stop  offset="0" style="stop-color:#FFE000"/>
		<stop  offset="0.4087" style="stop-color:#FFBD00"/>
		<stop  offset="0.7754" style="stop-color:#FFA500"/>
		<stop  offset="1" style="stop-color:#FF9C00"/>
	</linearGradient>
	<path fill="url(#SVGID_2_)" d="M56.14,43.146l-6.963-6.964v-0.246V35.69l6.964-6.965l0.158,0.089l8.249,4.688
		c2.356,1.339,2.356,3.529,0,4.868l-8.249,4.688L56.14,43.146z"/>
	
		<linearGradient id="SVGID_3_" gradientUnits="userSpaceOnUse" x1="258.4297" y1="462.8047" x2="220.0565" y2="501.1779" gradientTransform="matrix(1 0 0 1 -206 -423)">
		<stop  offset="0" style="stop-color:#FF3A44"/>
		<stop  offset="1" style="stop-color:#C31162"/>
	</linearGradient>
	<path fill="url(#SVGID_3_)" d="M56.299,43.057l-7.122-7.121L28.164,56.948c0.776,0.823,2.059,0.924,3.503,0.104L56.299,43.057"/>
	
		<linearGradient id="SVGID_4_" gradientUnits="userSpaceOnUse" x1="228.8721" y1="425.5088" x2="246.0075" y2="442.6442" gradientTransform="matrix(1 0 0 1 -206 -423)">
		<stop  offset="0" style="stop-color:#32A071"/>
		<stop  offset="0.0685" style="stop-color:#2DA771"/>
		<stop  offset="0.4762" style="stop-color:#15CF74"/>
		<stop  offset="0.8009" style="stop-color:#06E775"/>
		<stop  offset="1" style="stop-color:#00F076"/>
	</linearGradient>
	<path opacity="0.5" fill="url(#SVGID_4_)" d="M56.299,28.813L31.667,14.817c-1.445-0.82-2.727-0.718-3.503,0.104l21.013,21.014
		L56.299,28.813z"/>
</g>
<g>
	<path fill="#FFFFFF" d="M82.469,16.973c0-2.807,2.285-5.078,5.077-5.078c1.284,0,2.497,0.479,3.399,1.269l-1.425,1.326
		c-0.522-0.423-1.185-0.691-1.904-0.691c-1.707,0-3.061,1.438-3.061,3.173c0,1.734,1.354,3.173,3.061,3.173
		c0.719,0,1.382-0.268,1.904-0.691l1.425,1.326c-0.903,0.79-2.116,1.27-3.399,1.27C84.754,22.051,82.469,19.78,82.469,16.973z"/>
	<path fill="#FFFFFF" d="M91.063,16.973c0-2.821,2.313-5.078,5.105-5.078c2.807,0,5.106,2.257,5.106,5.078
		c0,2.807-2.299,5.078-5.106,5.078C93.376,22.051,91.063,19.78,91.063,16.973z M99.188,16.973c0-1.749-1.298-3.173-3.019-3.173
		c-1.707,0-3.018,1.424-3.018,3.173c0,1.734,1.312,3.173,3.018,3.173C97.89,20.146,99.188,18.708,99.188,16.973z"/>
	<path fill="#FFFFFF" d="M102.987,12.037h2.892l2.355,6.544l2.397-6.544h2.892l0.776,9.873h-2.116l-0.508-7.405l-2.341,6.375h-2.229
		l-2.355-6.375l-0.494,7.405h-2.045L102.987,12.037z"/>
	<path fill="#FFFFFF" d="M115.773,12.037h2.017v9.873h-2.017V12.037z"/>
	<path fill="#FFFFFF" d="M119.597,12.037h2.525l4.315,6.982v-6.982h1.933v9.873h-2.469l-4.372-7.01v7.01h-1.932V12.037z"/>
	<path fill="#FFFFFF" d="M129.646,16.973c0-2.807,2.312-5.078,5.105-5.078c1.847,0,3.385,0.846,4.301,2.144l0.198,0.282
		l-1.749,0.973l-0.212-0.268c-0.563-0.706-1.381-1.227-2.496-1.227c-1.706,0-3.074,1.382-3.074,3.117c0,1.791,1.354,3.23,3.074,3.23
		c0.974,0,1.903-0.353,2.694-1.255V18.44h-2.073v-1.665h3.907v5.134h-1.834v-0.889c-0.775,0.648-1.636,1.03-2.877,1.03
		C131.817,22.051,129.646,19.78,129.646,16.973z"/>
	<path fill="#FFFFFF" d="M143.488,21.176l-0.563-0.324l1.016-1.538l0.367,0.212c0.662,0.381,1.579,0.776,2.65,0.776
		c1.058,0,1.735-0.438,1.735-1.03c0-0.775-0.733-1.044-2.243-1.453c-2.003-0.55-3.201-1.368-3.201-3.075
		c0-1.467,1.481-2.849,3.808-2.849c1.396,0,2.44,0.325,3.273,0.663l0.408,0.169l-1.029,1.509l-0.1-0.042
		c-0.479-0.226-1.522-0.564-2.411-0.564c-0.959,0-1.806,0.325-1.806,1.03s0.649,0.959,2.271,1.424
		c1.877,0.536,3.244,1.241,3.244,2.948c0,1.763-1.594,3.019-3.821,3.019C145.604,22.051,144.278,21.627,143.488,21.176z"/>
	<path fill="#FFFFFF" d="M151.589,16.973c0-2.821,2.312-5.078,5.105-5.078c2.807,0,5.106,2.257,5.106,5.078
		c0,2.807-2.3,5.078-5.106,5.078C153.901,22.051,151.589,19.78,151.589,16.973z M159.713,16.973c0-1.749-1.298-3.173-3.019-3.173
		c-1.706,0-3.018,1.424-3.018,3.173c0,1.734,1.312,3.173,3.018,3.173C158.415,20.146,159.713,18.708,159.713,16.973z"/>
	<path fill="#FFFFFF" d="M162.539,16.973c0-2.821,2.312-5.078,5.105-5.078c2.807,0,5.106,2.257,5.106,5.078
		c0,2.807-2.3,5.078-5.106,5.078C164.852,22.051,162.539,19.78,162.539,16.973z M170.663,16.973c0-1.749-1.298-3.173-3.019-3.173
		c-1.706,0-3.018,1.424-3.018,3.173c0,1.734,1.312,3.173,3.018,3.173C169.365,20.146,170.663,18.708,170.663,16.973z"/>
	<path fill="#FFFFFF" d="M174.026,12.037h2.524l4.316,6.982v-6.982h1.933v9.873h-2.468l-4.372-7.01v7.01h-1.934V12.037z"/>
	<path fill="#FFFFFF" d="M187.08,20.753c0-0.691,0.563-1.27,1.298-1.27c0.676,0,1.269,0.578,1.269,1.27
		c0,0.733-0.593,1.298-1.269,1.298C187.644,22.051,187.08,21.486,187.08,20.753z M187.419,12.037h1.889v6.77h-1.889V12.037z"/>
</g>
</svg>
