<?xml version="1.0" encoding="utf-8"?>
<!-- Generator: Adobe Illustrator 16.0.4, SVG Export Plug-In . SVG Version: 6.00 Build 0)  -->
<!DOCTYPE svg PUBLIC "-//W3C//DTD SVG 1.1//EN" "http://www.w3.org/Graphics/SVG/1.1/DTD/svg11.dtd">
<svg version="1.1" id="Layer_1" xmlns="http://www.w3.org/2000/svg" xmlns:xlink="http://www.w3.org/1999/xlink" x="0px" y="0px"
	 width="250px" height="72px" viewBox="0 0 250 72" enable-background="new 0 0 250 72" xml:space="preserve">
<g>
	<g>
		<g>
			<path opacity="0.12" enable-background="new    " d="M28.164,56.704c-0.491-0.521-0.781-1.325-0.781-2.368v0.245
				c0,1.043,0.291,1.849,0.781,2.37l0.125-0.127L28.164,56.704z"/>
		</g>
	</g>
</g>
<g>
	<path fill="#FFFFFF" stroke="#FFFFFF" stroke-width="0.2" stroke-miterlimit="10" d="M90.521,19.483
		c0,1.413-0.418,2.538-1.256,3.377c-0.952,0.998-2.192,1.497-3.716,1.497c-1.46,0-2.703-0.506-3.723-1.519
		c-1.022-1.012-1.533-2.269-1.533-3.766c0-1.499,0.51-2.753,1.533-3.766c1.021-1.012,2.263-1.519,3.723-1.519
		c0.724,0,1.417,0.141,2.076,0.424c0.659,0.283,1.188,0.659,1.583,1.13l-0.89,0.89c-0.67-0.8-1.592-1.2-2.769-1.2
		c-1.066,0-1.986,0.374-2.764,1.123c-0.777,0.75-1.165,1.721-1.165,2.917s0.388,2.169,1.165,2.917
		c0.777,0.749,1.698,1.123,2.764,1.123c1.129,0,2.071-0.376,2.825-1.129c0.489-0.491,0.772-1.173,0.848-2.05h-3.673V18.72h4.901
		C90.497,18.984,90.521,19.238,90.521,19.483z"/>
	<path fill="#FFFFFF" stroke="#FFFFFF" stroke-width="0.2" stroke-miterlimit="10" d="M98.292,15.258h-4.607v3.207h4.154v1.216
		h-4.154v3.207h4.607v1.244h-5.906V14.015h5.906V15.258z"/>
	<path fill="#FFFFFF" stroke="#FFFFFF" stroke-width="0.2" stroke-miterlimit="10" d="M103.774,24.131h-1.301v-8.874h-2.825v-1.243
		h6.952v1.243h-2.825V24.131z"/>
	<path fill="#FFFFFF" stroke="#FFFFFF" stroke-width="0.2" stroke-miterlimit="10" d="M111.63,24.131V14.015h1.299v10.117H111.63z"
		/>
	<path fill="#FFFFFF" stroke="#FFFFFF" stroke-width="0.2" stroke-miterlimit="10" d="M118.695,24.131h-1.301v-8.874h-2.826v-1.243
		h6.952v1.243h-2.826V24.131z"/>
	<path fill="#FFFFFF" stroke="#FFFFFF" stroke-width="0.2" stroke-miterlimit="10" d="M134.681,22.823
		c-0.994,1.023-2.23,1.534-3.709,1.534c-1.479,0-2.715-0.511-3.708-1.534c-0.995-1.021-1.49-2.271-1.49-3.75s0.495-2.729,1.49-3.751
		c0.993-1.022,2.229-1.534,3.708-1.534c1.471,0,2.703,0.514,3.702,1.541c0.998,1.027,1.497,2.274,1.497,3.744
		C136.171,20.552,135.675,21.802,134.681,22.823z M128.223,21.977c0.751,0.758,1.665,1.137,2.749,1.137c1.083,0,2-0.379,2.748-1.137
		c0.749-0.758,1.124-1.727,1.124-2.904s-0.375-2.146-1.124-2.904c-0.748-0.758-1.665-1.137-2.748-1.137
		c-1.084,0-1.998,0.378-2.749,1.137c-0.747,0.758-1.123,1.727-1.123,2.904S127.476,21.218,128.223,21.977z"/>
	<path fill="#FFFFFF" stroke="#FFFFFF" stroke-width="0.2" stroke-miterlimit="10" d="M137.996,24.131V14.015h1.582l4.917,7.87
		h0.055l-0.055-1.95v-5.92h1.3v10.117h-1.355l-5.146-8.251h-0.055l0.055,1.95v6.301H137.996z"/>
</g>
<path fill="#FFFFFF" d="M125.452,38.886c-3.966,0-7.198,3.018-7.198,7.173c0,4.126,3.232,7.171,7.198,7.171s7.197-3.045,7.197-7.171
	C132.649,41.903,129.418,38.886,125.452,38.886z M125.452,50.402c-2.173,0-4.047-1.791-4.047-4.344c0-2.582,1.875-4.346,4.047-4.346
	c2.174,0,4.047,1.764,4.047,4.346C129.499,48.611,127.626,50.402,125.452,50.402z M109.749,38.886c-3.966,0-7.199,3.018-7.199,7.173
	c0,4.126,3.232,7.171,7.199,7.171s7.198-3.045,7.198-7.171C116.947,41.903,113.715,38.886,109.749,38.886z M109.749,50.402
	c-2.173,0-4.048-1.791-4.048-4.344c0-2.582,1.875-4.346,4.048-4.346c2.173,0,4.047,1.764,4.047,4.346
	C113.796,48.611,111.922,50.402,109.749,50.402z M91.068,41.088v3.041h7.281c-0.218,1.713-0.788,2.96-1.658,3.83
	c-1.059,1.06-2.717,2.226-5.624,2.226c-4.481,0-7.985-3.609-7.985-8.092c0-4.481,3.503-8.096,7.985-8.096
	c2.419,0,4.184,0.951,5.488,2.173l2.146-2.146c-1.821-1.739-4.238-3.069-7.634-3.069c-6.139,0-11.3,4.999-11.3,11.138
	c0,6.138,5.161,11.137,11.3,11.137c3.314,0,5.813-1.087,7.769-3.123c2.01-2.012,2.636-4.836,2.636-7.119
	c0-0.704-0.055-1.356-0.163-1.899H91.068z M167.463,43.449c-0.599-1.601-2.416-4.563-6.14-4.563c-3.693,0-6.763,2.908-6.763,7.173
	c0,4.018,3.042,7.171,7.116,7.171c3.287,0,5.188-2.009,5.978-3.178l-2.446-1.631c-0.813,1.196-1.928,1.981-3.531,1.981
	c-1.603,0-2.743-0.73-3.477-2.172l9.589-3.965L167.463,43.449z M157.685,45.842c-0.082-2.772,2.147-4.184,3.748-4.184
	c1.25,0,2.309,0.625,2.662,1.52L157.685,45.842z M149.89,52.795h3.149V31.716h-3.149V52.795z M144.727,40.489h-0.108
	c-0.706-0.843-2.064-1.604-3.775-1.604c-3.587,0-6.874,3.153-6.874,7.2c0,4.021,3.287,7.144,6.874,7.144
	c1.711,0,3.069-0.761,3.775-1.631h0.108v1.033c0,2.744-1.467,4.21-3.83,4.21c-1.928,0-3.123-1.386-3.612-2.553l-2.744,1.14
	c0.788,1.903,2.879,4.238,6.356,4.238c3.695,0,6.819-2.173,6.819-7.471V39.32h-2.989V40.489z M141.114,50.402
	c-2.173,0-3.993-1.818-3.993-4.316c0-2.528,1.82-4.373,3.993-4.373c2.146,0,3.829,1.845,3.829,4.373
	C144.943,48.584,143.26,50.402,141.114,50.402z M182.223,31.716h-7.537v21.079h3.144v-7.986h4.394c3.488,0,6.916-2.525,6.916-6.546
	C189.139,34.241,185.711,31.716,182.223,31.716z M182.306,41.876h-4.477V34.65h4.477c2.351,0,3.687,1.947,3.687,3.612
	C185.992,39.896,184.656,41.876,182.306,41.876z M201.748,38.849c-2.277,0-4.637,1.003-5.614,3.227l2.794,1.164
	c0.596-1.164,1.709-1.544,2.875-1.544c1.627,0,3.281,0.976,3.308,2.711v0.218c-0.57-0.324-1.789-0.813-3.282-0.813
	c-3.01,0-6.073,1.652-6.073,4.747c0,2.819,2.468,4.636,5.233,4.636c2.115,0,3.282-0.95,4.013-2.062h0.109v1.629h3.037v-8.083
	C208.147,40.935,205.354,38.849,201.748,38.849z M201.367,50.4c-1.028,0-2.467-0.517-2.467-1.789c0-1.628,1.79-2.251,3.337-2.251
	c1.382,0,2.033,0.296,2.873,0.704C204.867,49.017,203.185,50.4,201.367,50.4z M219.211,39.309l-3.605,9.14h-0.109l-3.741-9.14h-3.39
	l5.614,12.771l-3.202,7.106h3.282l8.65-19.878H219.211z M190.874,52.795h3.146V31.716h-3.146V52.795z"/>
<linearGradient id="SVGID_1_" gradientUnits="userSpaceOnUse" x1="47.3242" y1="56.1025" x2="19.0285" y2="27.8068" gradientTransform="matrix(1 0 0 -1 0 73)">
	<stop  offset="0" style="stop-color:#00A0FF"/>
	<stop  offset="0.0066" style="stop-color:#00A1FF"/>
	<stop  offset="0.2601" style="stop-color:#00BEFF"/>
	<stop  offset="0.5122" style="stop-color:#00D2FF"/>
	<stop  offset="0.7604" style="stop-color:#00DFFF"/>
	<stop  offset="1" style="stop-color:#00E3FF"/>
</linearGradient>
<path fill="url(#SVGID_1_)" d="M28.164,14.921c-0.491,0.519-0.781,1.325-0.781,2.369v37.288c0,1.046,0.291,1.852,0.781,2.37
	l0.124,0.121l20.889-20.888v-0.246v-0.246l-20.889-20.89L28.164,14.921z"/>
<linearGradient id="SVGID_2_" gradientUnits="userSpaceOnUse" x1="67.6157" y1="37.0654" x2="26.8178" y2="37.0654" gradientTransform="matrix(1 0 0 -1 0 73)">
	<stop  offset="0" style="stop-color:#FFE000"/>
	<stop  offset="0.4087" style="stop-color:#FFBD00"/>
	<stop  offset="0.7754" style="stop-color:#FFA500"/>
	<stop  offset="1" style="stop-color:#FF9C00"/>
</linearGradient>
<path fill="url(#SVGID_2_)" d="M56.14,43.146l-6.963-6.964v-0.246v-0.246l6.964-6.965l0.158,0.089l8.249,4.688
	c2.356,1.339,2.356,3.529,0,4.868l-8.249,4.688L56.14,43.146z"/>
<linearGradient id="SVGID_3_" gradientUnits="userSpaceOnUse" x1="52.4297" y1="33.1953" x2="14.0571" y2="-5.1773" gradientTransform="matrix(1 0 0 -1 0 73)">
	<stop  offset="0" style="stop-color:#FF3A44"/>
	<stop  offset="1" style="stop-color:#C31162"/>
</linearGradient>
<path fill="url(#SVGID_3_)" d="M56.299,43.057l-7.122-7.121L28.164,56.948c0.776,0.823,2.059,0.924,3.503,0.104L56.299,43.057"/>
<linearGradient id="SVGID_4_" gradientUnits="userSpaceOnUse" x1="22.8721" y1="70.4922" x2="40.0075" y2="53.3568" gradientTransform="matrix(1 0 0 -1 0 73)">
	<stop  offset="0" style="stop-color:#32A071"/>
	<stop  offset="0.0685" style="stop-color:#2DA771"/>
	<stop  offset="0.4762" style="stop-color:#15CF74"/>
	<stop  offset="0.8009" style="stop-color:#06E775"/>
	<stop  offset="1" style="stop-color:#00F076"/>
</linearGradient>
<path fill="url(#SVGID_4_)" d="M56.299,28.813L31.667,14.817c-1.445-0.82-2.727-0.718-3.503,0.104l21.013,21.014L56.299,28.813z"/>
</svg>
