<?xml version="1.0" encoding="utf-8"?>
<!-- Generator: Adobe Illustrator 16.0.4, SVG Export Plug-In . SVG Version: 6.00 Build 0)  -->
<!DOCTYPE svg PUBLIC "-//W3C//DTD SVG 1.1//EN" "http://www.w3.org/Graphics/SVG/1.1/DTD/svg11.dtd">
<svg version="1.1" id="Layer_1" xmlns="http://www.w3.org/2000/svg" xmlns:xlink="http://www.w3.org/1999/xlink" x="0px" y="0px"
	 width="200px" height="200px" viewBox="0 0 200 200" enable-background="new 0 0 200 200" xml:space="preserve">
<rect fill="#00932A" width="200" height="200"/>
<rect x="18.501" y="18.501" fill="#008D2C" width="134.163" height="134.163"/>
<rect x="18.501" y="18.501" fill="#00932A" width="11.18" height="11.18"/>
<rect x="29.681" y="18.501" fill="#008D2C" width="11.181" height="11.18"/>
<rect x="40.862" y="18.501" fill="#00932A" width="11.18" height="11.18"/>
<rect x="52.042" y="18.501" fill="#00932A" width="11.18" height="11.18"/>
<rect x="63.221" y="18.501" fill="#00932A" width="11.181" height="11.18"/>
<rect x="74.402" y="18.501" fill="#00932A" width="11.18" height="11.18"/>
<rect x="85.582" y="18.501" fill="#00932A" width="11.18" height="11.18"/>
<rect x="96.761" y="18.501" fill="#00932A" width="11.18" height="11.18"/>
<rect x="107.941" y="18.501" fill="#00932A" width="11.18" height="11.18"/>
<rect x="119.121" y="18.501" fill="#00932A" width="11.181" height="11.18"/>
<rect x="130.302" y="18.501" fill="#00932A" width="11.18" height="11.18"/>
<rect x="141.481" y="18.501" fill="#00932A" width="11.18" height="11.18"/>
<rect x="18.501" y="29.681" fill="#00A52B" width="11.18" height="11.18"/>
<rect x="29.681" y="29.681" fill="#00932A" width="11.181" height="11.18"/>
<rect x="40.862" y="29.681" fill="#006B1E" width="11.18" height="11.18"/>
<rect x="52.042" y="29.681" fill="#00932A" width="11.18" height="11.18"/>
<rect x="63.221" y="29.681" fill="#00932A" width="11.181" height="11.18"/>
<rect x="74.402" y="29.681" fill="#00932A" width="11.18" height="11.18"/>
<rect x="85.582" y="29.681" fill="#00932A" width="11.18" height="11.18"/>
<rect x="96.761" y="29.681" fill="#008D2C" width="11.18" height="11.18"/>
<rect x="107.941" y="29.681" fill="#00932A" width="11.18" height="11.18"/>
<rect x="119.121" y="29.681" fill="#00932A" width="11.181" height="11.18"/>
<rect x="130.302" y="29.681" fill="#00932A" width="11.18" height="11.18"/>
<rect x="141.481" y="29.681" fill="#00932A" width="11.18" height="11.18"/>
<rect x="18.501" y="40.861" fill="#00932A" width="11.18" height="11.18"/>
<rect x="29.681" y="40.861" fill="#008D2C" width="11.181" height="11.18"/>
<rect x="40.862" y="40.861" fill="#00932A" width="11.18" height="11.18"/>
<rect x="52.042" y="40.861" fill="#00932A" width="11.18" height="11.18"/>
<rect x="63.221" y="40.861" fill="#00932A" width="11.181" height="11.18"/>
<rect x="74.402" y="40.861" fill="#00932A" width="11.18" height="11.18"/>
<rect x="85.582" y="40.861" fill="#00932A" width="11.18" height="11.18"/>
<rect x="96.761" y="40.861" fill="#00932A" width="11.18" height="11.18"/>
<rect x="107.941" y="40.861" fill="#00932A" width="11.18" height="11.18"/>
<rect x="119.121" y="40.861" fill="#00932A" width="11.181" height="11.18"/>
<rect x="130.302" y="40.861" fill="#00932A" width="11.18" height="11.18"/>
<rect x="141.481" y="40.861" fill="#00932A" width="11.18" height="11.18"/>
<rect x="18.501" y="52.041" fill="#00932A" width="11.18" height="11.18"/>
<rect x="29.681" y="52.041" fill="#00932A" width="11.181" height="11.18"/>
<rect x="40.862" y="52.041" fill="#00932A" width="11.18" height="11.18"/>
<rect x="63.221" y="52.041" fill="#00932A" width="11.181" height="11.18"/>
<rect x="74.402" y="52.041" fill="#00A52B" width="11.18" height="11.18"/>
<rect x="85.582" y="52.041" fill="#00932A" width="11.18" height="11.18"/>
<rect x="96.761" y="52.041" fill="#00932A" width="11.18" height="11.18"/>
<rect x="107.941" y="52.041" fill="#00932A" width="11.18" height="11.18"/>
<rect x="119.121" y="52.041" fill="#00932A" width="11.181" height="11.18"/>
<rect x="130.302" y="52.041" fill="#00932A" width="11.18" height="11.18"/>
<rect x="141.481" y="52.041" fill="#00932A" width="11.18" height="11.18"/>
<rect x="18.501" y="63.22" fill="#00932A" width="11.18" height="11.18"/>
<rect x="29.681" y="63.22" fill="#00932A" width="11.181" height="11.18"/>
<rect x="40.862" y="63.22" fill="#00932A" width="11.18" height="11.18"/>
<rect x="52.042" y="63.22" fill="#00932A" width="11.18" height="11.18"/>
<rect x="63.221" y="63.22" fill="#00932A" width="11.181" height="11.18"/>
<rect x="74.402" y="63.22" fill="#00932A" width="11.18" height="11.18"/>
<rect x="85.582" y="63.22" fill="#006B1E" width="11.18" height="11.18"/>
<rect x="96.761" y="63.22" fill="#00A52B" width="11.18" height="11.18"/>
<rect x="119.121" y="63.22" fill="#00932A" width="11.181" height="11.18"/>
<rect x="130.302" y="63.22" fill="#00932A" width="11.18" height="11.18"/>
<rect x="141.481" y="63.22" fill="#00A52B" width="11.18" height="11.18"/>
<rect x="18.501" y="74.4" fill="#00932A" width="11.18" height="11.18"/>
<rect x="29.681" y="74.4" fill="#00932A" width="11.181" height="11.18"/>
<rect x="40.862" y="74.4" fill="#00932A" width="11.18" height="11.18"/>
<rect x="52.042" y="74.4" fill="#00A52B" width="11.18" height="11.18"/>
<rect x="63.221" y="74.4" fill="#00932A" width="11.181" height="11.18"/>
<rect x="74.402" y="74.4" fill="#00932A" width="11.18" height="11.18"/>
<rect x="85.582" y="74.4" fill="#00932A" width="11.18" height="11.18"/>
<rect x="96.761" y="74.4" fill="#008D2C" width="11.18" height="11.18"/>
<rect x="107.941" y="74.4" fill="#00932A" width="11.18" height="11.18"/>
<rect x="119.121" y="74.4" fill="#00932A" width="11.181" height="11.18"/>
<rect x="130.302" y="74.4" fill="#00932A" width="11.18" height="11.18"/>
<rect x="141.481" y="74.4" fill="#00932A" width="11.18" height="11.18"/>
<rect x="18.501" y="85.58" fill="#00932A" width="11.18" height="11.18"/>
<rect x="29.681" y="85.58" fill="#00932A" width="11.181" height="11.18"/>
<rect x="40.862" y="85.58" fill="#00932A" width="11.18" height="11.18"/>
<rect x="52.042" y="85.58" fill="#00932A" width="11.18" height="11.18"/>
<rect x="63.221" y="85.58" fill="#00932A" width="11.181" height="11.18"/>
<rect x="85.582" y="85.58" fill="#00932A" width="11.18" height="11.18"/>
<rect x="96.761" y="85.58" fill="#00932A" width="11.18" height="11.18"/>
<rect x="107.941" y="85.58" fill="#00932A" width="11.18" height="11.18"/>
<rect x="119.121" y="85.58" fill="#00932A" width="11.181" height="11.18"/>
<rect x="130.302" y="85.58" fill="#00932A" width="11.18" height="11.18"/>
<rect x="141.481" y="85.58" fill="#00932A" width="11.18" height="11.18"/>
<rect x="18.501" y="96.76" fill="#00A52B" width="11.18" height="11.18"/>
<rect x="29.681" y="96.76" fill="#00932A" width="11.181" height="11.18"/>
<rect x="52.042" y="96.76" fill="#00932A" width="11.18" height="11.18"/>
<rect x="63.221" y="96.76" fill="#00932A" width="11.181" height="11.18"/>
<rect x="74.402" y="96.76" fill="#00932A" width="11.18" height="11.18"/>
<rect x="85.582" y="96.76" fill="#00932A" width="11.18" height="11.18"/>
<rect x="96.761" y="96.76" fill="#008D2C" width="11.18" height="11.18"/>
<rect x="107.941" y="96.76" fill="#00932A" width="11.18" height="11.18"/>
<rect x="119.121" y="96.76" fill="#008D2C" width="11.181" height="11.18"/>
<rect x="130.302" y="96.76" fill="#00932A" width="11.18" height="11.18"/>
<rect x="141.481" y="96.76" fill="#00932A" width="11.18" height="11.18"/>
<rect x="18.501" y="107.939" fill="#00932A" width="11.18" height="11.18"/>
<rect x="29.681" y="107.939" fill="#00932A" width="11.181" height="11.18"/>
<rect x="40.862" y="107.939" fill="#00932A" width="11.18" height="11.18"/>
<rect x="52.042" y="107.939" fill="#00932A" width="11.18" height="11.18"/>
<rect x="63.221" y="107.939" fill="#00932A" width="11.181" height="11.18"/>
<rect x="74.402" y="107.939" fill="#00A52B" width="11.18" height="11.18"/>
<rect x="85.582" y="107.939" fill="#00932A" width="11.18" height="11.18"/>
<rect x="96.761" y="107.939" fill="#00932A" width="11.18" height="11.18"/>
<rect x="107.941" y="107.939" fill="#00932A" width="11.18" height="11.18"/>
<rect x="119.121" y="107.939" fill="#00932A" width="11.181" height="11.18"/>
<rect x="130.302" y="107.939" fill="#006B1E" width="11.18" height="11.18"/>
<rect x="141.481" y="107.939" fill="#00932A" width="11.18" height="11.18"/>
<rect x="115.902" y="1.732" fill="#00932A" width="11.18" height="11.18"/>
<rect x="127.082" y="1.732" fill="#00932A" width="11.18" height="11.18"/>
<rect x="138.262" y="1.732" fill="#008D2C" width="11.18" height="11.18"/>
<rect x="149.441" y="1.732" fill="#00932A" width="11.18" height="11.18"/>
<rect x="160.621" y="1.732" fill="#00932A" width="11.181" height="11.18"/>
<rect x="171.802" y="1.732" fill="#00932A" width="11.18" height="11.18"/>
<rect x="182.981" y="1.732" fill="#00932A" width="11.18" height="11.18"/>
<rect x="127.082" y="12.912" fill="#00932A" width="11.18" height="11.18"/>
<rect x="138.262" y="12.912" fill="#00932A" width="11.18" height="11.18"/>
<rect x="149.441" y="12.912" fill="#00932A" width="11.18" height="11.18"/>
<rect x="160.621" y="12.912" fill="#00932A" width="11.181" height="11.18"/>
<rect x="171.802" y="12.912" fill="#00932A" width="11.18" height="11.18"/>
<rect x="182.981" y="12.912" fill="#00932A" width="11.18" height="11.18"/>
<rect x="115.902" y="24.091" fill="#00932A" width="11.18" height="11.18"/>
<rect x="127.082" y="24.091" fill="#00932A" width="11.18" height="11.18"/>
<rect x="138.262" y="24.091" fill="#008D2C" width="11.18" height="11.18"/>
<rect x="149.441" y="24.091" fill="#00932A" width="11.18" height="11.18"/>
<rect x="160.621" y="24.091" fill="#008D2C" width="11.181" height="11.18"/>
<rect x="171.802" y="24.091" fill="#00932A" width="11.18" height="11.18"/>
<rect x="182.981" y="24.091" fill="#00932A" width="11.18" height="11.18"/>
<rect x="115.902" y="35.271" fill="#00A52B" width="11.18" height="11.18"/>
<rect x="127.082" y="35.271" fill="#00932A" width="11.18" height="11.18"/>
<rect x="138.262" y="35.271" fill="#00932A" width="11.18" height="11.18"/>
<rect x="149.441" y="35.271" fill="#00932A" width="11.18" height="11.18"/>
<rect x="160.621" y="35.271" fill="#00932A" width="11.181" height="11.18"/>
<rect x="171.802" y="35.271" fill="#006B1E" width="11.18" height="11.18"/>
<rect x="182.981" y="35.271" fill="#00932A" width="11.18" height="11.18"/>
<rect x="18.501" y="119.119" fill="#00932A" width="11.18" height="11.18"/>
<rect x="29.681" y="119.119" fill="#00932A" width="11.181" height="11.18"/>
<rect x="40.862" y="119.119" fill="#006B1E" width="11.18" height="11.18"/>
<rect x="52.042" y="119.119" fill="#00932A" width="11.18" height="11.18"/>
<rect x="74.402" y="119.119" fill="#00932A" width="11.18" height="11.18"/>
<rect x="85.582" y="119.119" fill="#00932A" width="11.18" height="11.18"/>
<rect x="96.761" y="119.119" fill="#00A52B" width="11.18" height="11.18"/>
<rect x="107.941" y="119.119" fill="#00932A" width="11.18" height="11.18"/>
<rect x="130.302" y="119.119" fill="#00932A" width="11.18" height="11.18"/>
<rect x="141.481" y="119.119" fill="#00932A" width="11.18" height="11.18"/>
<rect x="18.501" y="130.299" fill="#00932A" width="11.18" height="11.18"/>
<rect x="29.681" y="130.299" fill="#00932A" width="11.181" height="11.18"/>
<rect x="40.862" y="130.299" fill="#00932A" width="11.18" height="11.18"/>
<rect x="52.042" y="130.299" fill="#00932A" width="11.18" height="11.18"/>
<rect x="63.221" y="130.299" fill="#00932A" width="11.181" height="11.18"/>
<rect x="74.402" y="130.299" fill="#00932A" width="11.18" height="11.18"/>
<rect x="85.582" y="130.299" fill="#00932A" width="11.18" height="11.18"/>
<rect x="96.761" y="130.299" fill="#00932A" width="11.18" height="11.18"/>
<rect x="107.941" y="130.299" fill="#00932A" width="11.18" height="11.18"/>
<rect x="119.121" y="130.299" fill="#00932A" width="11.181" height="11.18"/>
<rect x="130.302" y="130.299" fill="#00932A" width="11.18" height="11.18"/>
<rect x="141.481" y="130.299" fill="#00932A" width="11.18" height="11.18"/>
<rect x="18.501" y="141.479" fill="#008D2C" width="11.18" height="11.181"/>
<rect x="29.681" y="141.479" fill="#00932A" width="11.181" height="11.181"/>
<rect x="40.862" y="141.479" fill="#00932A" width="11.18" height="11.181"/>
<rect x="52.042" y="141.479" fill="#00932A" width="11.18" height="11.181"/>
<rect x="63.221" y="141.479" fill="#00932A" width="11.181" height="11.181"/>
<rect x="74.402" y="141.479" fill="#00932A" width="11.18" height="11.181"/>
<rect x="85.582" y="141.479" fill="#00932A" width="11.18" height="11.181"/>
<rect x="96.761" y="141.479" fill="#00932A" width="11.18" height="11.181"/>
<rect x="107.941" y="141.479" fill="#00932A" width="11.18" height="11.181"/>
<rect x="119.121" y="141.479" fill="#008D2C" width="11.181" height="11.181"/>
<rect x="130.302" y="141.479" fill="#00932A" width="11.18" height="11.181"/>
<rect x="141.481" y="141.479" fill="#00932A" width="11.18" height="11.181"/>
<rect x="152.661" y="147.068" fill="#00932A" width="11.18" height="11.18"/>
<rect x="163.841" y="147.068" fill="#008D2C" width="11.181" height="11.18"/>
<rect x="175.021" y="147.068" fill="#00932A" width="11.18" height="11.18"/>
<rect x="186.201" y="147.068" fill="#00932A" width="11.18" height="11.18"/>
<rect x="152.661" y="158.248" fill="#00A52B" width="11.18" height="11.18"/>
<rect x="163.841" y="158.248" fill="#00932A" width="11.181" height="11.18"/>
<rect x="175.021" y="158.248" fill="#006B1E" width="11.18" height="11.18"/>
<rect x="186.201" y="158.248" fill="#00932A" width="11.18" height="11.18"/>
<rect x="152.661" y="169.428" fill="#00932A" width="11.18" height="11.18"/>
<rect x="163.841" y="169.428" fill="#008D2C" width="11.181" height="11.18"/>
<rect x="175.021" y="169.428" fill="#00932A" width="11.18" height="11.18"/>
<rect x="186.201" y="169.428" fill="#00932A" width="11.18" height="11.18"/>
<rect x="152.661" y="180.607" fill="#00932A" width="11.18" height="11.18"/>
<rect x="163.841" y="180.607" fill="#00932A" width="11.181" height="11.18"/>
<rect x="175.021" y="180.607" fill="#00932A" width="11.18" height="11.18"/>
</svg>
