<?xml version="1.0" encoding="utf-8"?>
<!-- Generator: Adobe Illustrator 16.0.4, SVG Export Plug-In . SVG Version: 6.00 Build 0)  -->
<!DOCTYPE svg PUBLIC "-//W3C//DTD SVG 1.1//EN" "http://www.w3.org/Graphics/SVG/1.1/DTD/svg11.dtd">
<svg version="1.1" xmlns="http://www.w3.org/2000/svg" xmlns:xlink="http://www.w3.org/1999/xlink" x="0px" y="0px" width="960px"
	 height="960px" viewBox="0 0 960 960" enable-background="new 0 0 960 960" xml:space="preserve">
<g id="badge">
	<path opacity="0.15" d="M436,873.828v-21h-89v-23h-42.566l-0.993-22h-21.58l-1.292-22h-21.103l-1.016-22h-22.166l-0.89-22h-21.518
		l-0.614-23h-21.157l-0.765-22h-21.851l-1.285-44.521c-5.305-0.184-11.066-0.451-13.427-0.793l-8.523-1.236l-0.208-43.449h-20.874
		l-0.989-58h-0.019l-0.145-8.58c-3.567,0.01-7.48,0.018-10.604,0.018h-9.619l-0.374-9.613c-3.011-77.55,2.531-198.082,2.587-199.291
		l0.444-9.534h19.791c0.086-3.007,0.202-6.941,0.358-12.086l0.271-8.945l8.125-0.655v-3.112l-6.57-5.031l2.626-77.166l20.84-1.513
		l3.834-61.516l23.076-1.633L194,168.699l41,18.052c40.327-1.059,313-5.6,313-5.6c32.616,1.073,138.673,4.541,179,5.6l41-18.052
		l23.926-17.91l14.344,1.015l3.834,61.516l20.841,1.513l2.625,77.205L827,297.029v3.13l7.9,0.638l0.271,8.944
		c0.145,4.755,0.258,8.792,0.34,12.086h19.675l0.444,9.534c0.057,1.208,5.599,121.74,2.587,199.291l-0.373,9.613h-9.619
		c-4.01,0-7.595-0.006-10.604-0.014l-0.129,8.576h-0.036l-0.989,58h-20.874l-0.208,43.449l-8.523,1.236
		c-2.361,0.342-8.122,0.609-13.427,0.793l-1.285,44.521h-21.851l-0.766,22h-21.156l-0.614,23h-21.519l-0.89,22h-22.165l-1.016,22
		h-21.103l-1.291,22H658.2l-0.992,22H615v23h-89v21H436z"/>
	<g>
		<path fill="#F2F2F2" d="M481,254.333c-214-2-336,9.667-336,9.667v20l3,4h333h333l3-4v-20C817,264,695,252.333,481,254.333z"/>
		<path opacity="0.5" fill="#9A9A9C" d="M481,255.434c-206.2-1.927-326.964,8.833-335.496,9.62L145,265.35l8.75,9.375
			c0,0,115.75-9.625,327.25-9.625s327.25,9.625,327.25,9.625l8.75-9.375l-0.505-0.297C807.964,264.266,687.199,253.506,481,255.434z
			"/>
	</g>
	<g>
		<polygon fill="#E01200" points="184,134 198,148.186 198,155 181,155 181,134.212 		"/>
		<path fill="#CE0A00" d="M184,139.625c0,0,6.237,5.131,9.859,14.337c-10.313,0.302-10.313,0.302-10.313,0.302l-0.604-14.237
			L184,139.625z"/>
		<polygon fill="#E01200" points="224.906,151.062 237,166.5 237,173 221,173 223.249,151.107 		"/>
		<path fill="#CE0A00" d="M223,158.625c0,0,6.237,5.131,9.859,14.337c-10.313,0.302-10.313,0.302-10.313,0.302l-0.604-14.237
			L223,158.625z"/>
	</g>
	<g>
		<polygon fill="#E01200" points="778,134 764,148.186 764,155 781,155 781,134.212 		"/>
		<path fill="#CE0A00" d="M778,139.625c0,0-6.236,5.131-9.859,14.337c10.313,0.302,10.313,0.302,10.313,0.302l0.604-14.237
			L778,139.625z"/>
		<polygon fill="#E01200" points="737.094,151.062 725,166.5 725,173 741,173 738.751,151.107 		"/>
		<path fill="#CE0A00" d="M739,158.625c0,0-6.236,5.131-9.859,14.337c10.313,0.302,10.313,0.302,10.313,0.302l0.604-14.237
			L739,158.625z"/>
	</g>
	<path fill="#FF1E00" d="M821.333,198.333l-20.667-1.5l-3.833-61.5L778,134v19.5l-41-2.5c0,0,0,4.667,0,20.167
		C704,170.5,538,165,538,165v-21h-45v-21h-24v21h-45v21c0,0-166,5.5-199,6.167c0-15.5,0-20.167,0-20.167l-41,2.5V134l-18.833,1.333
		l-3.833,61.5l-20.667,1.5L138,260.831l4.333,1.503L481,254l338.666,8.333l4.334-1.503L821.333,198.333z"/>
	<path fill="#AC0D00" d="M824,260.831c0,0-148.667-8.831-336-8.831h-7h-7c-187.333,0-336,8.831-336,8.831l-0.21-0.006l7.21,5.34
		c0,0,148.667-8.831,336-8.831s336,8.831,336,8.831l7.21-5.34L824,260.831z"/>
	<g>
		<path fill="#0027E5" d="M133.999,512l1.006,59c13.256,0,20.995,0,20.995,0l0.215,44.789c3.837,0.557,21.714,0.963,21.714,0.963
			L179.207,661H201l0.765,22H223l0.614,23H245l0.89,22H268l1.016,22H290l1.292,22H313l0.993,22H357v23h89v21h35h35v-21h89v-23
			h42.648l0.992-22h21.709l1.291-22h20.984l1.016-22h22.11l0.89-22h21.386l0.614-23h21.234l0.766-22h21.793l1.277-44.248
			c0,0,17.877-0.406,21.715-0.963L805.641,571c0,0,7.738,0,20.995,0l1.006-59H133.999z"/>
	</g>
	<path fill="#002AEF" d="M827.771,504.389c0,0,8.26,0.049,20.453,0.049C851.254,426.416,845.641,306,845.641,306h-20
		c0,0,0.202,0.217-0.465-21.783C717.843,275.55,481,276.099,481,276.099s-237.067-0.549-344.4,8.118
		c-0.667,22-0.6,21.783-0.6,21.783h-20c0,0-5.613,120.416-2.583,198.438c7.778,0,20.452-0.049,20.452-0.049l0.13,8.611h693.643
		L827.771,504.389z"/>
</g>
<g id="TRIP">
	<polygon opacity="0.2" points="565.348,569.303 562.598,566.948 487,566.948 487,569.303 487,574.303 487,605.303 510.706,605.303 
		509.852,702.928 501.375,702.928 487,702.928 487,709.471 487,719.471 487,742.47 567.305,742.47 566.943,709.471 563.701,702.928 
		544.851,702.928 545.707,604.48 568.5,604.48 568.5,582.428 568.5,572.001 	"/>
	<path opacity="0.2" d="M576.836,730.215l2.001-163.569h76.739l6.858,5.278v16.659h13.652l9.296,6.148l-1.333,54.05h-22.652
		l-0.5,24.025h-44.334l-0.687,67.895l-34.527,0.413L576.836,730.215z M641.866,630l0.217-26.707l-22.132,0.08L619.762,630H641.866z"
		/>
	<path opacity="0.2" d="M440.167,742.47v-45.999h-23.083v-22.667H407.08v56.913l-3.287,11.753h-32.394l-2.266-170.655l6.545-4.866
		h75.487l0.001,23.104H475v61.251h-23.667v29.499H475v61.667H440.167z M440.167,631.428V604.48H408.25v26.947H440.167z"/>
	<polygon opacity="0.2" points="303.122,742.47 299.745,605.399 277.004,605.067 276.208,582.47 276.035,582.47 276,577.47 
		276,573.433 284.736,568.896 360.976,569.131 360.934,600.795 357,603.883 353.712,606.463 349.152,606.47 338.232,606.47 
		340.907,732.948 334.494,742.47 	"/>
	<g>
		<g>
			<polygon fill="#AAAAB0" points="350,601 353.938,597.891 353.969,573.646 348,574 348.333,599.333 			"/>
			<polygon fill="#C1C2D0" points="350,576 353.969,573.646 283.95,573.43 279,576 279,577 350,577 			"/>
			<polygon fill="#AAAAB0" points="331.125,601 333.875,731 329.833,737 326.875,734.25 324.25,601 			"/>
			<polygon fill="#FFFFFF" points="279,576 350,576 350,601 327,601 329.833,737 306,737 302.625,600 279.833,599.668 			"/>
			<polygon fill="#919194" points="327,601 331.297,609.157 331.125,601 			"/>
		</g>
		<g>
			<polygon fill="#B6B6BF" points="401.08,670.501 401.08,731.729 399,739.167 396.299,739.167 396.299,670.501 			"/>
			<polygon fill="#C2C3CF" points="373.167,576 376.333,573.646 445.167,573.646 445.167,576 442.333,578.333 373.243,578.333 			
				"/>
			<rect x="445.167" y="596.75" fill="#C6C6CF" width="23.833" height="5.25"/>
			<path fill="#FFFFFF" d="M445.167,601v-25h-72l2.167,163.167H399v-68.666h22.083v22.667h24.25v-45.167H469V601H445.167z
				 M444.167,647.001H397.5v-45.823h46.667V647.001z"/>
			<polygon fill="#95959C" points="445.167,600.688 455.625,596.75 445.167,596.75 			"/>
			<polygon fill="#B2B2B4" points="444.167,638.125 402.25,638.125 397.5,647.001 444.167,647.001 			"/>
			<path fill="#767678" d="M397.5,647.001l25.25-8.876c-17,0-20.5,0-20.5,0L397.5,647.001z"/>
			<polygon fill="#8D8D8F" points="402.25,638.125 402.25,601.178 397.5,601.178 397.5,647.001 			"/>
			<polygon fill="#6D6D72" points="397.5,601.178 402.25,608.251 402.25,601.178 			"/>
			<rect x="444.167" y="693.168" fill="#FFFFFF" width="24.833" height="45.999"/>
			<rect x="445.333" y="687.5" fill="#C6C6CF" width="23.667" height="5.668"/>
			<polygon fill="#89898C" points="445.333,693.168 456.235,687.5 445.333,687.5 			"/>
		</g>
		<g>
			<polyline fill="#B9BAC7" points="492,576 492,573.646 560.75,573.646 563.5,576 563.5,579.125 492,579.125 			"/>
			<polygon fill="#C0C1CA" points="539.807,709.625 560,709.625 561.998,716.168 561.998,718.875 539.807,718.875 			"/>
			<path fill="#FFFFFF" d="M492,576h71.5v25.178h-22.75l-1,114.99h22.248l0.252,22.999H492v-22.999h22.75l1-114.168
				c-22,0-23.75,0-23.75,0V576z"/>
			<rect x="492" y="709.625" fill="#C0C1CA" width="22.815" height="6.543"/>
			<polygon fill="#9999A0" points="539.75,716.168 549,709.625 539.75,709.625 			"/>
			<polygon fill="#B9BAC7" points="514.815,716.168 501.375,709.625 514.815,709.625 			"/>
		</g>
		<g>
			<polygon fill="#C3C3CE" points="584.673,738.071 581.848,731.25 583.776,573.646 587.207,576 587.943,737.882 			"/>
			<polygon fill="#B4B4B7" points="646.826,637 609.25,637 609.25,647.625 655.625,647.625 655.188,645.75 			"/>
			<polygon fill="#939398" points="610.66,646.188 625.5,637 610.726,637 			"/>
			<polygon fill="#C0C0C0" points="647.125,600.277 646.826,637 655.188,645.75 655.875,645.75 656.875,600.277 			"/>
			<polygon fill="#C9C9D4" points="586.732,576.385 583.776,573.646 653.875,573.646 657.435,576.385 657.435,579.125 
				586.697,579.125 			"/>
			<path fill="#FFFFFF" d="M657.435,599.375v-22.99h-70.702l-2.06,161.687l24.254-0.308l0.687-67.957H656l0.5-24.025h22.672
				l1.145-46.406H657.435z M655.188,645.75l-44.527,0.438l0.326-45.799l45.015-0.139L655.188,645.75z"/>
			<polygon fill="#C8C8D0" points="680.316,599.375 674.583,595.583 657.435,595.583 657.435,599.375 			"/>
			<polygon fill="#9898A0" points="657.435,599.375 665.333,595.583 657.435,595.583 			"/>
			<polygon fill="#909091" points="647.023,612.75 656.001,600.25 647.124,600.25 			"/>
			<polygon fill="#5D5F65" points="647.088,605.955 653.98,600.25 647.124,600.25 			"/>
		</g>
	</g>
</g>
<g id="ROAD">
	<path opacity="0.2" d="M305.232,539.9L254,539.527v-45.964h-23v-23.985l-4-0.003v67.598l-7,1.589v1.144h-5
		c-0.278,0-30.959-0.435-44.137-0.622l-4.727-0.066l-0.198-4.724c-2.479-59.177,1.211-207.305,1.249-208.794l0.119-4.722
		l144.279-4.582l-0.614,106.168H293v35.082l11.014-0.069l0.449-0.458l2.151,0.441l4.387-0.028v0.928l5,1.025v76.516L306.855,540
		L305.232,539.9z M233,411.859l21-0.239v-30.057h-21V411.859z"/>
	<path opacity="0.2" d="M348.019,540l-0.188-49H324V338.025l24.033-0.12l-0.12-23.903L454,313.213V337h24v155h-24v48H348.019z
		 M419.162,480l-0.109-103H393v103H419.162z"/>
	<path opacity="0.2" d="M653.406,539.868h-3.726l-0.005-2.029L646,535.842V323.84l3.486-3.591l-0.027-3.249l5.342-0.079l0.513-0.001
		c11.465,0,87.343,1.837,90.567,1.916l4.802,0.117l0.076,4.802c0.002,0.119,0.158,10.041,0.209,18.938L774,342.917v22.952h21.621
		l0.363,4.607c1.005,12.74,0.057,113.172,0.016,117.441l-0.048,4.952H774v23h-22v24h-94.904L653.648,540L653.406,539.868z
		 M710,458.708l13.726-0.84H728v-54l-18-1V458.708z"/>
	<path opacity="0.2" d="M485,539.999V338h23.025l0.125-24.142L615,315.364V339h23v199.999h-58V468h-31v71.999H485z M580,409v-30h-30
		v30H580z"/>
	<g>
		<polygon fill="#B1B1B3" points="581,369 581,411 588,411 588,363 587,363 		"/>
		<polygon fill="#84848A" points="581,369 587,363 587,360 539,360 539,369 		"/>
		<g>
			<line fill="#929395" x1="539" y1="369" x2="581" y2="369"/>
		</g>
		<path fill="#6B6B71" d="M586.999,363c0,0-10.674,6-22.095,6c16.098,0,16.096,0,16.096,0L586.999,363z"/>
		<g>
			<polygon fill="#9A9A9D" points="225,371 225,414 210,414 210,366 212,365.603 			"/>
			<polygon fill="#959598" points="212,365.603 225.046,371 259,370.707 259,364 212,364 			"/>
			<polygon fill="#AFAFB9" points="211.71,529.271 219,527.617 219,457 209,457 209,529 			"/>
			<polygon fill="#AFAFB7" points="302.958,529.372 308,527.167 308,458 303.125,457 297,463.25 297,529 			"/>
			<polygon fill="#AAACB2" points="285,457 285,410 278,410 278,459 285,459 			"/>
			<polygon fill="#B3B1BA" points="303,412 307,412 308.5,320.5 303.556,315.994 299,323.5 299,409 			"/>
			<path fill="#FFFFFF" d="M303,412l0.556-96.006l-134.37,4.268c0,0-3.752,148.765-1.251,208.459
				c44.068,0.625,44.066,0.621,44.066,0.621V459l21,0.02V483h23v46l47,0.342V457l-23,0.145V412H303z M256,411l-44,0.5v-45.897
				l44-0.698V411z"/>
			<line fill="#8E8E92" x1="219" y1="471" x2="219" y2="459"/>
			<polygon fill="#88888C" points="212,459.25 219,475.557 219,459 212,459 			"/>
			<path fill="#88888C" d="M280,412c0,0,5,4.567,5,4.099s0-4.099,0-4.099H280z"/>
			<polygon fill="#96969D" points="280,457.072 285,450.922 285,457 			"/>
			<path fill="#959598" d="M225.046,371"/>
			<polygon fill="#88888C" points="211.954,365.603 225,380.1 225,371 220.151,368.994 			"/>
		</g>
		<g>
			<polyline fill="#9E9EA2" points="379,481 379,368 370.83,361 371,481 378,481 			"/>
			<polygon fill="#98989D" points="379,368 421,368 421,362 371.851,361.875 			"/>
			<polygon fill="#84848A" points="420.25,362.583 406.917,368 421,368 			"/>
			<path fill="#FFFFFF" d="M445,338v-23.75l-96.062,0.714l0.121,23.916L325,339v143h23.812L349,531h96v-48h24V338H445z M373,481
				l-0.083-118.167l47.125-0.25L420.167,481H373z"/>
			<polygon fill="#78787A" points="372.917,362.833 379,376.917 379,368 			"/>
			<polygon fill="#838384" points="373,481 379,465 379,481 			"/>
			<polygon fill="#828289" points="372.917,362.833 384.791,368 379,368 			"/>
		</g>
		<path fill="#FFFFFF" d="M612,339v-23.707l-96.876-1.365L515,338h-23v192h49v-72h46v71h48V339H612z M587,409h-47v-46h47V409z"/>
		<polygon fill="#68686D" points="587,363 580.9,383.333 580.9,369 		"/>
		<polygon fill="#C6C7CF" points="587,529 584,527.167 584,458 587,458 		"/>
		<polygon fill="#868692" points="584,468.242 587,460.562 587,458 584,458 		"/>
		<g>
			<polygon fill="#C2C2C2" points="726,458 714,459.32 714,484 727,484 727,458 			"/>
			<polygon fill="#A4A4A4" points="704,371 713,371 713,394 735,394 735,460 750,460 750,388 727,388 727,364 703,364 703,371 			
				"/>
			<rect x="742" y="388" fill="#AFAFB7" width="8" height="72"/>
			<polygon fill="#C3C3C6" points="656.833,530.083 653,528 653,321 656.833,317.052 659,320.333 659,530 			"/>
			<path fill="#FFFFFF" d="M793,366c-11.666,0-22,0-22,0v-23l-23.017-0.223c0-9.734-0.224-23.811-0.224-23.811
				s-83.384-2.022-91.26-1.91c0,0,1.168,193.943,0.168,212.943c21.666,0,92.332,0,92.332,0v-24h22v-23h22
				C793,483,793.999,378.667,793,366z M749,458h-23v24h-22V365h22v24c0,0,4.834,0,23,0V458z"/>
			<polygon fill="#6D6D74" points="734.9,403.062 749,389 734.9,394.05 			"/>
			<polygon fill="#BCBCBC" points="726,389 713,394 713,371 726,365 			"/>
			<polygon fill="#616161" points="726,365 712.9,381.286 713,371 			"/>
			<polygon fill="#7F7F80" points="712.9,371 726,365 704,365 704,371 			"/>
		</g>
	</g>
</g>
</svg>
