<?xml version="1.0" encoding="utf-8"?>
<!-- Generator: Adobe Illustrator 16.0.4, SVG Export Plug-In . SVG Version: 6.00 Build 0)  -->
<!DOCTYPE svg PUBLIC "-//W3C//DTD SVG 1.1//EN" "http://www.w3.org/Graphics/SVG/1.1/DTD/svg11.dtd">
<svg version="1.1" id="Layer_1" xmlns="http://www.w3.org/2000/svg" xmlns:xlink="http://www.w3.org/1999/xlink" x="0px" y="0px"
	 width="200px" height="200px" viewBox="0 0 200 200" enable-background="new 0 0 200 200" xml:space="preserve">
<g opacity="0.2">
	<rect x="22.368" y="140.557" fill="#FFFFFF" width="2.746" height="2.747"/>
	<rect x="133.518" y="24.5" opacity="0.1" width="2.746" height="2.746"/>
	<rect x="50.127" y="31.627" fill="#FFFFFF" width="2.746" height="2.746"/>
	<rect x="165.13" y="132.98" opacity="0.3" fill="#FFFFFF" width="2.746" height="2.746"/>
	<rect x="36.257" y="130.234" opacity="0.6" fill="#FFFFFF" width="2.746" height="2.745"/>
	<rect x="179.859" y="114.787" opacity="0.3" fill="#FFFFFF" width="2.747" height="2.748"/>
	<rect x="64.088" y="44.415" opacity="0.1" width="2.746" height="2.746"/>
	<rect x="121.126" y="12.769" fill="#FFFFFF" width="2.746" height="2.746"/>
	<rect x="129.274" y="51.521" fill="#FFFFFF" width="2.746" height="2.745"/>
	<rect x="100" y="160.5" opacity="0.6" fill="#FFFFFF" width="2.746" height="2.746"/>
	<rect x="82.383" y="153.351" fill="#FFFFFF" width="2.746" height="2.746"/>
	<g>
		<rect x="18.674" y="188" opacity="0.2" fill="#FFFFFF" width="2.746" height="2.746"/>
		<rect x="58.169" y="17.101" opacity="0.2" fill="#FFFFFF" width="2.747" height="2.747"/>
		<rect x="107.754" y="140.557" opacity="0.2" fill="#FFFFFF" width="2.746" height="2.747"/>
		<rect x="136.264" y="89" opacity="0.2" fill="#FFFFFF" width="2.746" height="2.746"/>
	</g>
	<rect x="93.047" y="177.903" fill="#FFFFFF" width="2.744" height="2.746"/>
	<rect x="18.674" y="13.055" fill="#FFFFFF" width="2.747" height="2.746"/>
	<rect x="136.264" y="105.747" opacity="0.1" width="2.746" height="2.745"/>
</g>
</svg>
