<?xml version="1.0" encoding="utf-8"?>
<!-- Generator: Adobe Illustrator 16.0.4, SVG Export Plug-In . SVG Version: 6.00 Build 0)  -->
<!DOCTYPE svg PUBLIC "-//W3C//DTD SVG 1.1//EN" "http://www.w3.org/Graphics/SVG/1.1/DTD/svg11.dtd">
<svg version="1.1" id="Layer_1" xmlns="http://www.w3.org/2000/svg" xmlns:xlink="http://www.w3.org/1999/xlink" x="0px" y="0px"
	 width="200px" height="200px" viewBox="0 0 200 200" enable-background="new 0 0 200 200" xml:space="preserve">
<g opacity="0.2">
	<rect x="86.432" y="98.305" fill="#FFFFFF" width="2.746" height="2.747"/>
	<rect x="125.473" y="161.651" opacity="0.1" width="2.747" height="2.746"/>
	<rect x="23.16" y="101.052" fill="#FFFFFF" width="2.747" height="2.745"/>
	<rect x="118.373" y="65.359" opacity="0.3" fill="#FFFFFF" width="2.746" height="2.747"/>
	<rect x="58.701" y="109.793" opacity="0.6" fill="#FFFFFF" width="2.747" height="2.746"/>
	<rect x="29.753" y="163.024" opacity="0.3" fill="#FFFFFF" width="2.747" height="2.746"/>
	<rect x="50.553" y="71.04" opacity="0.1" width="2.747" height="2.746"/>
	<rect x="115.627" y="180.302" fill="#FFFFFF" width="2.746" height="2.746"/>
	<rect x="107.479" y="141.549" fill="#FFFFFF" width="2.746" height="2.746"/>
	<rect x="150.436" y="117.523" opacity="0.6" fill="#FFFFFF" width="2.746" height="2.747"/>
	<rect x="182.377" y="84.578" fill="#FFFFFF" width="2.746" height="2.747"/>
	<g>
		<rect x="75.98" y="134.478" opacity="0.2" fill="#FFFFFF" width="2.747" height="2.746"/>
		<rect x="24.533" y="29" opacity="0.2" fill="#FFFFFF" width="2.746" height="2.747"/>
		<rect x="85.059" y="71.04" opacity="0.2" fill="#FFFFFF" width="2.747" height="2.746"/>
		<rect x="149.062" y="90.258" opacity="0.2" fill="#FFFFFF" width="2.746" height="2.746"/>
	</g>
	<rect x="162.254" y="21.754" fill="#FFFFFF" width="2.746" height="2.746"/>
	<rect x="118.372" y="118.294" fill="#FFFFFF" width="2.747" height="2.745"/>
	<rect x="83.685" y="36.202" opacity="0.1" width="2.747" height="2.746"/>
</g>
</svg>
