<?xml version="1.0" encoding="utf-8"?>
<!-- Generator: Adobe Illustrator 16.0.4, SVG Export Plug-In . SVG Version: 6.00 Build 0)  -->
<!DOCTYPE svg PUBLIC "-//W3C//DTD SVG 1.1//EN" "http://www.w3.org/Graphics/SVG/1.1/DTD/svg11.dtd">
<svg version="1.1" id="Layer_1" xmlns="http://www.w3.org/2000/svg" xmlns:xlink="http://www.w3.org/1999/xlink" x="0px" y="0px"
	 width="200px" height="200px" viewBox="0 0 200 200" enable-background="new 0 0 200 200" xml:space="preserve">
<g opacity="0.2">
	<rect x="147.663" y="179.046" fill="#FFFFFF" width="2.747" height="2.746"/>
	<rect x="75.442" y="184.113" opacity="0.1" width="2.746" height="2.746"/>
	<rect x="167.949" y="161.379" fill="#FFFFFF" width="2.746" height="2.746"/>
	<rect x="140.086" y="36.284" opacity="0.3" fill="#FFFFFF" width="2.746" height="2.746"/>
	<rect x="137.34" y="165.157" opacity="0.6" fill="#FFFFFF" width="2.745" height="2.746"/>
	<rect x="121.894" y="21.554" opacity="0.3" fill="#FFFFFF" width="2.748" height="2.747"/>
	<rect x="51.521" y="137.326" opacity="0.1" width="2.746" height="2.746"/>
	<rect x="19.875" y="80.288" fill="#FFFFFF" width="2.746" height="2.746"/>
	<rect x="58.627" y="72.14" fill="#FFFFFF" width="2.745" height="2.746"/>
	<rect x="19.875" y="19.957" opacity="0.6" fill="#FFFFFF" width="2.746" height="2.746"/>
	<rect x="160.457" y="119.031" fill="#FFFFFF" width="2.746" height="2.746"/>
	<g>
		<rect x="188.645" y="10.193" opacity="0.2" fill="#FFFFFF" width="2.746" height="2.746"/>
		<rect x="24.207" y="143.244" opacity="0.2" fill="#FFFFFF" width="2.747" height="2.747"/>
		<rect x="72.694" y="20.188" opacity="0.2" fill="#FFFFFF" width="2.747" height="2.746"/>
		<rect x="109.918" y="113.723" opacity="0.2" fill="#FFFFFF" width="2.746" height="2.746"/>
	</g>
	<rect x="185.01" y="108.369" fill="#FFFFFF" width="2.746" height="2.744"/>
	<rect x="20.162" y="182.739" fill="#FFFFFF" width="2.746" height="2.747"/>
	<rect x="112.854" y="65.15" opacity="0.1" width="2.745" height="2.747"/>
</g>
</svg>
