<?xml version="1.0" encoding="utf-8"?>
<!-- Generator: Adobe Illustrator 16.0.4, SVG Export Plug-In . SVG Version: 6.00 Build 0)  -->
<!DOCTYPE svg PUBLIC "-//W3C//DTD SVG 1.1//EN" "http://www.w3.org/Graphics/SVG/1.1/DTD/svg11.dtd">
<svg version="1.1" id="Layer_1" xmlns="http://www.w3.org/2000/svg" xmlns:xlink="http://www.w3.org/1999/xlink" x="0px" y="0px"
	 width="200px" height="200px" viewBox="0 0 200 200" enable-background="new 0 0 200 200" xml:space="preserve">
<g opacity="0.2">
	<rect x="51.084" y="51.482" fill="#FFFFFF" width="2.747" height="2.746"/>
	<rect x="155.483" y="86.552" opacity="0.1" width="2.746" height="2.747"/>
	<rect x="94.884" y="188.865" fill="#FFFFFF" width="2.746" height="2.747"/>
	<rect x="59.19" y="93.653" opacity="0.3" fill="#FFFFFF" width="2.747" height="2.746"/>
	<rect x="103.625" y="153.324" opacity="0.6" fill="#FFFFFF" width="2.746" height="2.746"/>
	<rect x="24.021" y="95.752" opacity="0.3" fill="#FFFFFF" width="2.747" height="2.747"/>
	<rect x="23.314" y="141.008" opacity="0.1" width="2.745" height="2.744"/>
	<rect x="92.139" y="141.006" fill="#FFFFFF" width="2.745" height="2.746"/>
	<rect x="135.382" y="104.547" fill="#FFFFFF" width="2.746" height="2.746"/>
	<rect x="184.753" y="19.5" opacity="0.6" fill="#FFFFFF" width="2.746" height="2.746"/>
	<rect x="78.411" y="29.648" fill="#FFFFFF" width="2.745" height="2.747"/>
	<g>
		<rect x="128.31" y="136.044" opacity="0.2" fill="#FFFFFF" width="2.746" height="2.747"/>
		<rect x="170.127" y="178.627" opacity="0.2" fill="#FFFFFF" width="2.746" height="2.746"/>
		<rect x="65.927" y="157.164" opacity="0.2" fill="#FFFFFF" width="2.747" height="2.746"/>
		<rect x="84.09" y="62.964" opacity="0.2" fill="#FFFFFF" width="2.746" height="2.747"/>
	</g>
	<rect x="115.796" y="28.512" fill="#FFFFFF" width="2.747" height="2.745"/>
	<rect x="112.126" y="93.652" fill="#FFFFFF" width="2.746" height="2.749"/>
	<rect x="64.72" y="189.483" opacity="0.1" width="2.746" height="2.747"/>
</g>
</svg>
