<?xml version="1.0" encoding="utf-8"?>
<!-- Generator: Adobe Illustrator 16.0.4, SVG Export Plug-In . SVG Version: 6.00 Build 0)  -->
<!DOCTYPE svg PUBLIC "-//W3C//DTD SVG 1.1//EN" "http://www.w3.org/Graphics/SVG/1.1/DTD/svg11.dtd">
<svg version="1.1" id="Layer_1" xmlns="http://www.w3.org/2000/svg" xmlns:xlink="http://www.w3.org/1999/xlink" x="0px" y="0px"
	 width="200px" height="200px" viewBox="0 0 200 200" enable-background="new 0 0 200 200" xml:space="preserve">
<g opacity="0.2">
	<rect x="132.997" y="57.803" fill="#FFFFFF" width="2.746" height="2.747"/>
	<rect x="97.926" y="162.201" opacity="0.1" width="2.746" height="2.746"/>
	<rect x="169.171" y="32.777" fill="#FFFFFF" width="2.746" height="2.746"/>
	<rect x="90.826" y="65.909" opacity="0.3" fill="#FFFFFF" width="2.746" height="2.746"/>
	<rect x="19.358" y="179.479" opacity="0.6" fill="#FFFFFF" width="2.746" height="2.745"/>
	<rect x="29.346" y="78.832" opacity="0.3" fill="#FFFFFF" width="2.747" height="2.747"/>
	<rect x="145.118" y="149.205" opacity="0.1" width="2.746" height="2.746"/>
	<rect x="88.08" y="180.852" fill="#FFFFFF" width="2.746" height="2.746"/>
	<rect x="79.932" y="142.1" fill="#FFFFFF" width="2.746" height="2.745"/>
	<rect x="146.491" y="87.875" opacity="0.6" fill="#FFFFFF" width="2.746" height="2.746"/>
	<rect x="55.667" y="53.418" fill="#FFFFFF" width="2.746" height="2.745"/>
	<g>
		<rect x="17.985" y="12.083" opacity="0.2" fill="#FFFFFF" width="2.746" height="2.746"/>
		<rect x="179.612" y="127.877" opacity="0.2" fill="#FFFFFF" width="2.747" height="2.747"/>
		<rect x="88.08" y="121.141" opacity="0.2" fill="#FFFFFF" width="2.746" height="2.747"/>
		<rect x="121.515" y="90.808" opacity="0.2" fill="#FFFFFF" width="2.746" height="2.746"/>
	</g>
	<rect x="47.062" y="164.947" fill="#FFFFFF" width="2.745" height="2.747"/>
	<rect x="190.531" y="180.565" fill="#FFFFFF" width="2.747" height="2.746"/>
	<rect x="72.942" y="87.874" opacity="0.1" width="2.747" height="2.746"/>
</g>
</svg>
